<svg xmlns="http://www.w3.org/2000/svg" viewBox="0 0 447.63 73.3"><g data-name="Layer 2"><g data-name="Layer 1"><g data-name="Layer 2"><path d="M36.65 0A36.65 36.65 0 1 0 73.3 36.65 36.65 36.65 0 0 0 36.65 0zM53 52.84L36.89 66.61l-8-8.08 16.85-14a12.45 12.45 0 0 0 4.47-9.2A12.94 12.94 0 0 0 47 25.62 13.6 13.6 0 0 0 36.82 21a14.14 14.14 0 0 0-9.11 3.42C22 29.24 21.64 38 26.83 44l.09.09h12.82l-14 11.6c-2.35-1.09-5.45-3.66-8.33-6.91-8.33-9.43-6.91-24.06 3.16-32.62a24.92 24.92 0 0 1 16.08-6 24.54 24.54 0 0 1 23.67 17.1c2.32 7.22 2.1 16.86-7.32 25.58zm74.37-44.33h7.74v44.4h-7.74zm179.75 11.35a16.68 16.68 0 0 0-16.39 16.91 16.68 16.68 0 0 0 16.39 16.91c9 0 16.39-7.59 16.39-16.91s-7.35-16.91-16.39-16.91m0 26.16a9.26 9.26 0 1 1 9-9.52v.27a9.12 9.12 0 0 1-9 9.25M180.64 34c0-1.56-.46-6.66-6.41-6.66a6.34 6.34 0 0 0-6.6 6.07V53h-7.49V34c0-2-.62-6.66-6.34-6.66a6.34 6.34 0 0 0-6.59 6.08V53h-7.49V34.2c0-8.48 5.79-14.41 14.09-14.41a12.35 12.35 0 0 1 9.92 4.55l.28.34.29-.34a12.74 12.74 0 0 1 9.93-4.56c8.44 0 13.9 5.65 13.9 14.41V53h-7.49zm18.7-13.38v19c0 1.56.46 6.66 6.4 6.66a6.41 6.41 0 0 0 6.6-6.21V20.62h7.49v18.7c0 8.48-5.79 14.41-14.09 14.41s-13.9-5.65-13.9-14.41V20.63zM244 34c0-1.56-.46-6.66-6.4-6.66a6.34 6.34 0 0 0-6.6 6.07V53h-7.49V34.2c0-8.48 5.79-14.41 14.09-14.41s13.89 5.65 13.89 14.41V53H244zM106.35 19.71h.23c10.12 0 16.66 7.56 16.55 17.31v15.9h-7.85V37c0-5.31-3.93-9.52-8.93-9.58h-.12a9.19 9.19 0 0 0-9 9.37A10.28 10.28 0 0 0 100.1 44a8.41 8.41 0 0 0 6.08 2.55 9.87 9.87 0 0 0 1.93-.2l4-6 .52-.78v13l-.2.09a21.16 21.16 0 0 1-7.09 1H105c-8.59-.03-15.6-7.66-15.5-17.03a16.66 16.66 0 0 1 16.4-16.92zm165.11 34c-9.46 0-16.67-7.27-16.77-16.92-.11-9.33 6.84-17 15.48-17.11h.34a21.2 21.2 0 0 1 7.09 1l.21.1v13l-.52-.78-4-6a10.19 10.19 0 0 0-1.93-.19 8.38 8.38 0 0 0-6.08 2.55 10.29 10.29 0 0 0-2.9 7.22 9.19 9.19 0 0 0 9 9.36h.12a9.26 9.26 0 0 0 8.94-9.58v-28h7.86v28c.11 9.75-7 17.2-16.55 17.31h-.23zm76.86-33.91c7.46 0 13 4.18 15 11.22h-8.12a8 8 0 0 0-6.88-4.18c-4.74 0-8.59 4.51-8.59 10.06s3.85 9.87 8.59 9.87a8 8 0 0 0 7-4.24h8.08c-1.94 7-7.53 11.21-15 11.21-9.24 0-16.2-7.27-16.2-16.91s7-17 16.2-17m32 .07A16.68 16.68 0 0 0 364 36.77c0 9.32 7.36 16.91 16.39 16.91a16.68 16.68 0 0 0 16.4-16.91 16.68 16.68 0 0 0-16.4-16.91m0 26.16a9.26 9.26 0 1 1 9-9.52v.27a9.12 9.12 0 0 1-9 9.25m59.79-12c0-1.56-.46-6.66-6.4-6.66a6.34 6.34 0 0 0-6.64 6V53h-7.49V34c0-2-.62-6.66-6.34-6.66a6.33 6.33 0 0 0-6.6 6V53h-7.5V34.2c0-8.48 5.79-14.41 14.09-14.41a12.36 12.36 0 0 1 9.93 4.55l.28.34.28-.34a12.76 12.76 0 0 1 9.94-4.56c8.44 0 13.9 5.65 13.9 14.41V53h-7.49zM332.76 48.84a4.7 4.7 0 1 1-4.71-4.69 4.7 4.7 0 0 1 4.7 4.69" fill="#999" data-name="Isolation Mode"/></g></g></g></svg>