<svg xmlns="http://www.w3.org/2000/svg" viewBox="0 0 181.39 85.41"><g data-name="Layer 2"><g data-name="Layer 1"><g data-name="Layer 2"><path d="M110.69 40l-7.21 20a1.16 1.16 0 0 1-1.08.76h-7.3a.6.6 0 0 1-.59-.6.47.47 0 0 1 0-.17l7.21-20a1.17 1.17 0 0 1 1.09-.76h7.3a.6.6 0 0 1 .56.77M89.3 63.8l-19.3.03a10 10 0 0 0-9.32 6.39c-.68 1.78-2 5.4-3.56 9.78A4.1 4.1 0 0 0 61 85.41h20.53a1.19 1.19 0 0 0 1.11-.79s1.12-3.14 1.39-3.87a.29.29 0 0 0 0-.06.62.62 0 0 0 0-.17.61.61 0 0 0-.59-.61H66.38a.6.6 0 0 1-.6-.6.54.54 0 0 1 0-.12v-.08c.28-.76 2.59-7.13 3.25-9a1.17 1.17 0 0 1 1.1-.78h17.18a1.17 1.17 0 0 0 1.08-.76c.21-.57 1.12-3.14 1.4-3.87v-.06a.48.48 0 0 0 0-.17.61.61 0 0 0-.59-.61m92.19 4a4 4 0 0 1-.21 1.32c-1.55 4.38-4.08 11.34-4.72 13.1a4.15 4.15 0 0 1-4 3.06H149a.6.6 0 0 1-.59-.6v-.12a.4.4 0 0 1 0-.06v-.07l.12-.34c.09-.22 7-19.46 7.06-19.6a1.18 1.18 0 0 1 1.11-.79h20.51a4.08 4.08 0 0 1 4.08 4.08M172 70a1.45 1.45 0 0 0 0-.19.6.6 0 0 0-.58-.6h-8.21a1.15 1.15 0 0 0-1.09.78c-.67 1.9-3 8.27-3.27 9a.73.73 0 0 0 0 .2.62.62 0 0 0 .6.6h8.22a1.17 1.17 0 0 0 1.09-.78c.66-1.9 3-8.27 3.26-9m-30.71-25.34h7.16a.59.59 0 0 1 .58.6.75.75 0 0 1 0 .19c-2.09 5.74-5 14-5.21 14.46a.23.23 0 0 1 0 .06.88.88 0 0 0 0 .18.6.6 0 0 0 .59.6h7.11a1.16 1.16 0 0 0 1.09-.76c.14-.37 3.17-8.8 5.26-14.58a1.16 1.16 0 0 1 1-.72h9.32a1.16 1.16 0 0 0 1.08-.76c.22-.56 1.12-3.14 1.39-3.86a.3.3 0 0 0 0-.07.49.49 0 0 0 0-.17.6.6 0 0 0-.59-.6h-26.87a1.17 1.17 0 0 0-1.09.76c-.2.56-1.13 3.14-1.4 3.86a.21.21 0 0 0 0 .06.54.54 0 0 0 0 .17.61.61 0 0 0 .59.6m-74.61-5.41h-22a10 10 0 0 0-9.11 8.18 4.33 4.33 0 0 0-.08.83 4.08 4.08 0 0 0 4.08 4.08h12.78a1.14 1.14 0 0 1 1 .87.72.72 0 0 1 0 .24v.08a1.9 1.9 0 0 1-1.88 1.81l-17.5.04a1.16 1.16 0 0 0-1.08.75l-1.41 4a.54.54 0 0 0 0 .17.61.61 0 0 0 .59.61h21.3a10 10 0 0 0 9.81-8.18 3.8 3.8 0 0 0 .09-.83 4.1 4.1 0 0 0-4.09-4.1H46.49a1.14 1.14 0 0 1-1.13-1.12v-.08a1.89 1.89 0 0 1 1.88-1.81h17.53a1.16 1.16 0 0 0 1.08-.82l1.42-3.93a1 1 0 0 0 0-.18.6.6 0 0 0-.59-.6m31.46 0h-22A10 10 0 0 0 67 47.45a4.17 4.17 0 0 0-.09.83A4.09 4.09 0 0 0 71 52.36h12.84a1.15 1.15 0 0 1 1 .87.83.83 0 0 1 0 .24v.07A1.9 1.9 0 0 1 83 55.36H65.49a1.15 1.15 0 0 0-1.08.75l-1.41 4a.6.6 0 0 0 0 .17.62.62 0 0 0 .59.61h21.3a10 10 0 0 0 9.81-8.18 3.91 3.91 0 0 0 .08-.83 4.09 4.09 0 0 0-4.09-4.09H77.95a1.13 1.13 0 0 1-1.1-.87 1 1 0 0 1 0-.24v-.08a1.88 1.88 0 0 1 1.88-1.81h17.54a1.16 1.16 0 0 0 1-.79l1.41-4a.45.45 0 0 0 0-.18.6.6 0 0 0-.58-.6m40.71 0h-19.23a10 10 0 0 0-9.11 8.18 4.35 4.35 0 0 0-.08.83 4.09 4.09 0 0 0 4.09 4.08h12.77a1.14 1.14 0 0 1 1 .87.9.9 0 0 1 0 .24v.08a1.89 1.89 0 0 1-1.88 1.81h-17.52a1.15 1.15 0 0 0-1.08.75l-1.41 4a.44.44 0 0 0 0 .17.61.61 0 0 0 .59.6h21.29a10 10 0 0 0 9.76-8.18 4.08 4.08 0 0 0-4-4.93h-12.7a1.13 1.13 0 0 1-1.1-.87 1.15 1.15 0 0 1 0-.25v-.1a1.88 1.88 0 0 1 1.88-1.81h14.81a1.15 1.15 0 0 0 1.09-.76l1.46-3.93a.45.45 0 0 0 0-.18.61.61 0 0 0-.59-.6m-19 28.65a4.09 4.09 0 0 1-.22 1.32c-1.54 4.37-4.08 11.34-4.72 13.1a3.14 3.14 0 0 1-.18.46c-.34 1-.61 1.71-.65 1.81a1.15 1.15 0 0 1-1.08.76h-7.15a.61.61 0 0 1-.59-.6.54.54 0 0 1 0-.18v-.07c.14-.35 1.15-3.17 2.09-5.78l.42-1.18a.16.16 0 0 0 0-.06.61.61 0 0 0-.48-.59h-8.83A1.88 1.88 0 0 0 96.82 78l-2.36 6.6a1.16 1.16 0 0 1-1.08.76h-7.2a.6.6 0 0 1-.58-.48.7.7 0 0 1 0-.13.94.94 0 0 1 0-.18l2.4-6.65 1.66-4.61c.06-.17.13-.33.2-.5.4-1.08.72-2 1-2.62a10 10 0 0 1 9.31-6.39h15.67a4.08 4.08 0 0 1 4.09 4.07m-11.5 4.4h.05a1.9 1.9 0 0 0 1.67-1l.17-.45a1.94 1.94 0 0 0 0-.33v-.08a.72.72 0 0 0 0-.24 1.13 1.13 0 0 0-1-.86H101a1.9 1.9 0 0 0-1.62 1.79v.08a.92.92 0 0 0 0 .25 1.14 1.14 0 0 0 1.06.86h7.9zM34.35 43.45a3.93 3.93 0 0 1-.23 1.32c-1.53 4.37-4.12 11.33-4.71 13.1a4.4 4.4 0 0 1-.17.47l-.65 1.81a1.15 1.15 0 0 1-1.09.76h-7.16a.6.6 0 0 1-.57-.78.35.35 0 0 1 0-.06l2.1-5.79.42-1.18a.61.61 0 0 0-.49-.59h-8.92a1.89 1.89 0 0 0-1.64 1.17l-2.35 6.51a1.15 1.15 0 0 1-1.08.76H.61a.6.6 0 0 1-.6-.46.68.68 0 0 1 0-.14.62.62 0 0 1 0-.17H0l2.4-6.67 1.72-4.61c.06-.17.12-.33.19-.5l1-2.62a10 10 0 0 1 9.31-6.39H30.3a4.09 4.09 0 0 1 4.1 4.08m-11.45 4.4a1.87 1.87 0 0 0 1.67-1l.17-.45V46a.69.69 0 0 0 0-.24 1.11 1.11 0 0 0-1-.86h-8.32a1.88 1.88 0 0 0-1.62 1.79v.08a.72.72 0 0 0 0 .24 1.13 1.13 0 0 0 1.06.87h8zm124.9 15.91a4.08 4.08 0 0 1 3.83 4.07V68a5.33 5.33 0 0 1-.09.66c-.48 2.69-1.79 5.36-6 6.63a2.41 2.41 0 0 1 2.42 2.4 2.29 2.29 0 0 1-.17.87c-.58 1.62-2.06 5.71-2.15 6a1.16 1.16 0 0 1-1.08.75h-7.15a.61.61 0 0 1-.6-.6.51.51 0 0 1 0-.18.45.45 0 0 1 0-.07c.15-.4 1.43-4 2.47-6.83a.52.52 0 0 0 0-.18.6.6 0 0 0-.6-.6H130a1.88 1.88 0 0 0-1.72 1.15l-2.36 6.52a1.17 1.17 0 0 1-1.09.75h-7.21a.6.6 0 0 1-.58-.6.67.67 0 0 1 0-.18l7.22-20a1.18 1.18 0 0 1 1.1-.74h22.4m-6 6.58a1 1 0 0 0 0-.25 1.13 1.13 0 0 0-1.11-.86h-8.2a1.9 1.9 0 0 0-1.56 1.78v.06a1 1 0 0 0 0 .25 1.13 1.13 0 0 0 1.06.86h7.95a1.88 1.88 0 0 0 1.88-1.8.4.4 0 0 0 0-.06zm-19.5-67.49A2.84 2.84 0 0 0 119.42 0H91.86a6.91 6.91 0 0 0-6.46 4.45l-1.11 3a3.32 3.32 0 0 0-.14.34C83.76 8.93 83.37 10 83 11c-.08.21-.15.42-.22.62a54.84 54.84 0 0 1 9-1.63l.05-.15.17-.35.67-1.82a6.9 6.9 0 0 1 6.46-4.44H110a2.84 2.84 0 0 1 2.84 2.83 2.74 2.74 0 0 1-.15.92c-.37 1.05-.82 2.29-1.26 3.5a27.14 27.14 0 0 1 7.48 2.26c.83-2.29 2.39-6.62 3.24-9a2.9 2.9 0 0 0 .15-.91M99.85 9.61h-1c-.26 0-.68-.27-.58-.56l.36-1a1.31 1.31 0 0 1 1.07-.9h5.74a.77.77 0 0 1 .68.6.37.37 0 0 1 0 .17 1.67 1.67 0 0 1 0 .24s-.2.59-.42 1.16c-.12.32-.72.48-1 .46-1.55-.1-3.18-.15-4.86-.15m13.5 13.11a24.16 24.16 0 0 1-7.3 2.56 6.24 6.24 0 0 0-.91-4.76 7 7 0 0 0-.44-.56 21.17 21.17 0 0 1 8.65 2.75m-14.06-2.81a5.28 5.28 0 0 1 4.07 1.86 4.53 4.53 0 0 1 .37 3.92 47.52 47.52 0 0 1-6.71.47l2.27-6.25m-10.85 5.4A11.57 11.57 0 0 1 96.95 20l-2.23 6.13a38.56 38.56 0 0 1-6.29-.79m1.94-5.11a12.69 12.69 0 0 0-4.13 4.55 13.79 13.79 0 0 1-4.59-2.22c.59-.24 1.2-.47 1.86-.7a41.39 41.39 0 0 1 6.87-1.63m19.79-6.32c4.51 1.38 7 3.61 6 6a5 5 0 0 1-1.46 1.87 15.41 15.41 0 0 0-5.12-2.39 31 31 0 0 0-3.05-.7 47 47 0 0 0-8.15-.69 58.25 58.25 0 0 0-6.26.35 44.72 44.72 0 0 0-9.13 2 22 22 0 0 0-2.49 1 2.7 2.7 0 0 1-.28-2.58c.95-2.38 5-4.37 10.32-5.44-.42 1.17-.79 2.17-1.06 2.9-.13.37.27.6.53.56 1.61-.23 3.27-.41 4.95-.5a1 1 0 0 0 .89-.67c.23-.58.75-2 1-2.72a.52.52 0 0 1 .55-.37h3.52a28.15 28.15 0 0 1 3.19.21.29.29 0 0 1 .22.34c-.25.71-.62 1.74-1 2.66-.14.35.31.65.56.67a39.81 39.81 0 0 1 4.1.59c.33.07 1 0 1.16-.37l.18-.48.12-.33.72-2" fill="#999" data-name="Layer 1-2"/></g></g></g></svg>