<svg xmlns="http://www.w3.org/2000/svg" viewBox="0 0 408.2 227.45"><g data-name="Layer 2"><g data-name="Layer 1"><g data-name="Layer 2"><path d="M321.19 109.89h8.69c-.52 5.36 2.33 17.94-9.21 23.51a27.62 27.62 0 0 1-12.13 2.83q-6.86 0-10.89-2.94a9.68 9.68 0 0 1-4-8.39q-.06-15 27.54-15.01zM79 125a9.68 9.68 0 0 0 4 8.39q4 2.93 10.89 2.94a27.62 27.62 0 0 0 12.11-2.8c11.54-5.57 8.7-18.15 9.21-23.51h-8.69Q78.94 110 79 125zM408.2 0v227.45H0V0zm-293 100.67L95 100.5c-14.77-.12-29.13 8.5-29.13 25.21a18.5 18.5 0 0 0 6.85 14.84c4.6 3.84 10.41 5.74 17.51 5.74q15.27 0 25-9v7.33h12.67V98.44q0-16-7.68-21.39T98.8 71.58q-29.4 0-30.84 22h12.67q.55-12.1 17.51-12.11 8.07 0 11.79 2.3a9.24 9.24 0 0 1 4.5 5.74 55.28 55.28 0 0 1 .81 11.16zm16.87 75.57l-10.17-11.57c-6.49 8.75-15.63 5.76-24-.12-8.57-6-19.18-5.93-29.9 5.37l10.21 11.57c9.36-7.13 14.11-4.22 18.91-.06 6.45 5.63 25.05 9.24 35-5.19zm74.48-105H194l-22.59 55.49-21.12-55.53h-14.43l28.5 73.74-11.93 26.78h13.9zm63.31 52.36q0-10.23-6.3-14.41t-19.26-7.31c-8.64-2.09-14-3.75-16.2-5a6.37 6.37 0 0 1-3.22-6 7.74 7.74 0 0 1 4.21-7.08 21.08 21.08 0 0 1 10.59-2.41q14.48 0 15.14 10.09h12.66q-.59-20-28.68-20c-8.09 0-14.52 2-19.35 5.84A18.09 18.09 0 0 0 212.27 92q0 9.83 5.82 13.72c3.88 2.62 10 5 18.45 7.08s14 3.84 16.66 5.15a7 7 0 0 1 4 6.85 10 10 0 0 1-4.1 8.2c-2.76 2.16-6.78 3.26-12 3.26q-17.65 0-17.79-13.08h-12.72q1.34 23 30.63 23c8.73 0 15.72-2.14 20.89-6.43a20.09 20.09 0 0 0 7.79-16.19zm72.64-25.25q0-16-7.68-21.39t-21.42-5.47q-29.4 0-30.84 22h12.66q.55-12.1 17.51-12.11 8.07 0 11.79 2.3a9.24 9.24 0 0 1 4.5 5.74 55.28 55.28 0 0 1 .8 11.14l-20.17-.17c-14.81-.12-29.17 8.51-29.17 25.22a18.5 18.5 0 0 0 6.85 14.84c4.6 3.84 10.41 5.74 17.51 5.74q15.27 0 25-9v7.33h12.66z" fill="#999" data-name="Layer 1-2"/></g></g></g></svg>