<svg xmlns="http://www.w3.org/2000/svg" viewBox="0 0 151.7 187.14"><g data-name="Layer 2"><g data-name="Layer 1"><g data-name="Layer 2"><path d="M35 36.51l-6-2.83 3.89 8.13-4.6 9.9 6.37-3.54 7.78 10.25-1.38-12.72 7.43-3.89-7.43-3.18 1.06-11-7.07 8.84zM57.82 134a68.23 68.23 0 1 1 67.57-18.87s-4.75-6.16-6.16-8.28-3.54-2.39-3.18-5.31c.43-3.53 3.18-7.07 3.18-7.07l.71 2.83s19.86-20.87 17.68-35c-1.42-9.22-7.08-10.3-7.08-10.3s1.41-8.49-11.67-14.85-23-5.3-23-5.3l5.66 4.24s-6.81-1.22-10.26-.35l-2.83.71 3.67 1.77s-7.47.34-12.51 4.24c-3.94 3-4.24 5-4.24 5h2.84A29.2 29.2 0 0 0 75 56c-.71 4.24-.4 5.39-.4 5.39s0 2-3.58 4.64c-2.62 1.94-5.17 2.39-6 3.45-1.2 1.6 2.52 4.2 2.52 4.2a9 9 0 0 1-2 4c-.79 1 2 2.65 2.92 3.05l-2.25 1.86s-.8.8.53 1.72.8 2.92.27 5-1.59 5.44 5.57 6.23 7.56 2.12 8.22 3 4.77 12.6 2.65 14.46c-2.92 2.55-8 1.8-17.9 8.49A17.3 17.3 0 0 0 57.82 134zm22.77-75.43a31.15 31.15 0 0 0 3.31 4.24c.9.66 1.19 1.59.53 1.73s-5.31 0-5.31 0l.27-.8a3.34 3.34 0 0 1 0-2.12 2.72 2.72 0 0 1 1.46-1.46zM0 160.2h10.3c7.86 0 9.48 7.43 9.48 12.34 0 5.56-2 13.57-9.68 13.57H0zm4.77 21.43h4.75c4 0 5.29-4.44 5.29-8.7 0-7.65-3.28-8.26-5.36-8.26H4.77v17zm23.72 4.47h-5.13l8.31-25.91h5.63l8.22 25.91h-5.3l-1.5-5.34h-8.6l-1.62 5.34zm2.92-9.81h5.94L34.47 166h-.06l-3 10.25zm34.81-16.09h4.55v25.91H65.9l-9.51-18.47h-.07v18.47h-4.54V160.2h5.13l9.26 18h.07v-18zm23.92-.89c3.4 0 12.35 1.51 12.35 13.92s-9 13.91-12.35 13.91-12.35-1.51-12.35-13.91 9-13.92 12.35-13.92zm0 23.15c2.9 0 7-1.84 7-9.24s-4.08-9.24-7-9.24-7 1.84-7 9.24 4.08 9.24 7 9.24zm34.08-22.26h4.55v25.91h-4.87l-9.52-18.47h-.06v18.47h-4.55V160.2h5.13l9.26 18h.07v-18zm27 4.58H142v5.45h8.14v4.58H142v6.71h9.7v4.58h-14.44v-25.9h13.92v4.58z" fill="#999" data-name="Layer 1-2"/></g></g></g></svg>