<svg xmlns="http://www.w3.org/2000/svg" viewBox="0 0 195.26 48.69"><g data-name="Layer 2"><g data-name="Layer 1"><g data-name="Layer 2"><path d="M24 .82a.14.14 0 0 1 .14.19L22 5.72a.26.26 0 0 1-.23.18h-10a.27.27 0 0 0-.23.18L9.89 13a.14.14 0 0 0 .08.18h10.31a.15.15 0 0 1 .15.19L19 18.09a.25.25 0 0 1-.23.18H9.12a.23.23 0 0 0-.23.18l-2.7 11.76a.28.28 0 0 1-.19.19H.16a.15.15 0 0 1-.16-.19L6.52.82zm26.88 11.4a8.66 8.66 0 0 1 1.72 6.27 16.79 16.79 0 0 1-.27 1.86 2.94 2.94 0 0 1-.15.62 8.69 8.69 0 0 1-.23.89c-.14.47-.31.94-.49 1.38v.07A11.93 11.93 0 0 1 40 31c-4 0-6.3-1.47-7.51-3.37a9.61 9.61 0 0 1-1.23-5.82 7.35 7.35 0 0 1 .14-1.18L35.68 1c.12-.34.29-.38.62-.38h4.21a.66.66 0 0 1 .29 0A.35.35 0 0 1 41 1a.3.3 0 0 1 0 .11l-2.6 11.42a8.82 8.82 0 0 1 6.67-2.8 7.35 7.35 0 0 1 5.87 2.48m-3.87 8.07a7.84 7.84 0 0 0 .18-1.28 4.66 4.66 0 0 0-.72-3.17 3.58 3.58 0 0 0-3.09-1.3 7 7 0 0 0-6.71 5.78 6.62 6.62 0 0 0-.15 1c-.17 2.59 1 4.68 4.15 4.69 3.51 0 5.67-2.75 6.33-5.79M29.28.53a4 4 0 0 0-3.79 3.14 4 4 0 0 0-.07.46A2.58 2.58 0 0 0 26 6a2.52 2.52 0 0 0 2 .8 3.94 3.94 0 0 0 3.85-3.13 4 4 0 0 1 .08-.5 2.47 2.47 0 0 0-.62-1.93 2.72 2.72 0 0 0-2-.75m.46 9.7h-4.9a.49.49 0 0 0-.32.34l-4.24 19.68a.15.15 0 0 0 .1.18h5a.25.25 0 0 0 .23-.19l4.25-19.8a.14.14 0 0 0-.09-.17M73.06 12c1.27 1.45 1.85 3.59 1.65 6.31a16.58 16.58 0 0 1-.37 2.46l-.23 1.06c-.07.35-.11.44-.64.44H59.25a.28.28 0 0 0-.13.14C59 25 60.7 26.55 63.29 26.56a7.52 7.52 0 0 0 5.44-2.5.46.46 0 0 1 .52 0L72 26.51c.09.11.2.23 0 .44a12.64 12.64 0 0 1-9.1 3.95 8.85 8.85 0 0 1-6.5-2.42A8.08 8.08 0 0 1 54.32 22 13.25 13.25 0 0 1 67.39 9.73 7.21 7.21 0 0 1 73.06 12m-3.45 5.84v-.34a3.32 3.32 0 0 0-.83-2.7 4 4 0 0 0-3-1 6.09 6.09 0 0 0-5.72 4s-.09.21 0 .29h9.21a.32.32 0 0 0 .24-.31m20.79-8H85a8 8 0 0 0-5.23 2.34c-1.88 2-2.57 5.21-3.18 7.9v.06l-2.16 10c0 .14 0 .23.23.26h4.64a.53.53 0 0 0 .47-.32L82 19.83a12.31 12.31 0 0 1 1.09-3.36 3.57 3.57 0 0 1 3.3-1.66h2c.19 0 .19-.09.23-.25L90.5 10m59 38.69a66.53 66.53 0 0 0 19.93-3.41c13.71-4.37 25-13 25.78-19.75a5.93 5.93 0 0 0-1.46-4.79c-2.81-3.13-8.93-3.79-13.58-3.79a38 38 0 0 0-4 .18l.09 1h1c2.34 0 10.18.25 12.84 3.53a4.06 4.06 0 0 1 .79 3.6c-1.22 5.88-9.55 13-22.34 17.92a65.36 65.36 0 0 1-23.17 4.53 34.36 34.36 0 0 1-6-.43c.15.06 3.55 1.41 10.14 1.41m1.16-38.82h-5.47a8 8 0 0 0-5.2 2.32c-1.88 2-2.56 5.21-3.18 7.9v.06l-2.16 10c0 .14 0 .23.23.26h4.65a.54.54 0 0 0 .47-.32l2.23-10.26a12.13 12.13 0 0 1 1.08-3.36 3.56 3.56 0 0 1 3.31-1.66h2c.2 0 .2-.09.25-.25l1.83-4.56m-25.14-.3c5.59 0 9.38 3.57 8.93 9a13.07 13.07 0 0 1-.26 1.65A13.84 13.84 0 0 1 120.84 31c-5.58 0-9.37-3.56-8.93-9a10.85 10.85 0 0 1 .27-1.66 13.82 13.82 0 0 1 13.4-10.64M129 20.35a7.07 7.07 0 0 0 .14-.9 4.3 4.3 0 0 0-4.58-5 7.55 7.55 0 0 0-7.13 5.92c-.05.31-.11.61-.13.91a4.31 4.31 0 0 0 4.58 5 7.54 7.54 0 0 0 7.12-5.93M162.15 9.7c5.51 0 8.86 3.66 8.41 9.13a11.69 11.69 0 0 1-.26 1.65A13.2 13.2 0 0 1 157.44 31h-.34a6.17 6.17 0 0 1-4.86-2l-2.39 10.74c0 .25-.11.32-.47.36h-4.3c-.3 0-.44-.14-.39-.45L149 20.11c1.63-7.17 6.87-10 11.7-10.29a13 13 0 0 1 1.51-.11m3.1 9.85c.22-2.71-.91-5.08-4.13-5.08-3.56 0-6.32 2.94-7 6a8.36 8.36 0 0 0-.14.91c-.22 2.71 1.27 4.88 4.48 4.89 3.58 0 6-2.76 6.66-5.85a6.45 6.45 0 0 0 .14-.89m-48-15A9.18 9.18 0 0 0 108.78 0c-8.55 0-15.53 6.28-17.38 15.62-.89 4.46-.28 8.29 1.75 11.09S98.53 31 102.63 31a14.09 14.09 0 0 0 9-3.23.5.5 0 0 0 .05-.45l-2.06-3.66c-.09-.14-.22-.2-.45-.06a8.37 8.37 0 0 1-5.54 2.4 6.19 6.19 0 0 1-5.41-2.77c-1.42-2-1.85-4.82-1.21-8.05 1.2-6 6-10.3 11.24-10.3 2.05 0 3.23.89 4.49 2.7.16.23.22.15.45 0l4-2.74a.27.27 0 0 0 .06-.37" fill="#999" data-name="Layer 1-2"/></g></g></g></svg>