<svg xmlns="http://www.w3.org/2000/svg" viewBox="0 0 702.37 147.64"><g data-name="Layer 2"><g data-name="Layer 1"><g data-name="Layer 2"><path d="M73.82 0A73.82 73.82 0 1 1 0 73.82 73.82 73.82 0 0 1 73.82 0zm0 7a66.79 66.79 0 1 0 66.79 66.79A66.79 66.79 0 0 0 73.82 7zm3.62 81.1v22.62H70.2V88.13c-3.46 0-8 0-9.69-.08l-24 .06A10.92 10.92 0 0 1 25 77.81v-1a8.93 8.93 0 0 1 .14-1.49A43.15 43.15 0 0 1 39.86 49.9a12.46 12.46 0 0 1 9.26-2.22A11.8 11.8 0 0 1 55 40.59a9 9 0 0 1 1.44-.66 51.38 51.38 0 0 1 34.91 0 13.36 13.36 0 0 1 7.13 7.64 10.59 10.59 0 0 1 8.8 1.89 46.78 46.78 0 0 1 10.12 11.85 42.9 42.9 0 0 1 5.1 13.94 8.92 8.92 0 0 1 .14 1.49 10.92 10.92 0 0 1-10.46 11.36h-1l-24-.06c-1.71.06-6.22.07-9.68.08zM103 55.36a3.69 3.69 0 0 0-5.58 1.42L85.26 78a1.83 1.83 0 0 0 1.68 2.83l24.43.06a3.68 3.68 0 0 0 4-4 1.37 1.37 0 0 0 0-.36 35.9 35.9 0 0 0-12.2-21.09l-.12-.09zm-58.38 0l-.12.09a35.89 35.89 0 0 0-12.2 21.09 1.47 1.47 0 0 0 0 .36 3.68 3.68 0 0 0 4 4l24.43-.06A1.83 1.83 0 0 0 62.38 78L50.21 56.78a3.68 3.68 0 0 0-5.58-1.42zM89 46.83l-.17-.07a44.14 44.14 0 0 0-30 0 1.66 1.66 0 0 0-.39.19 4.53 4.53 0 0 0-1.79 6.68l15.09 26a2.25 2.25 0 0 0 4.05 0l15.09-26a4.53 4.53 0 0 0-1.88-6.8zm95.54-11.67V109h27.26V72.07l18 36.91 18-36.91V109h27.26V35.17h-27.2l-18 36.91-18-36.91zm144.6 11l-11.05 38.6h22.14l-11.08-38.54zM283.87 109l21.2-73.82h48.17l21.2 73.82h-27.26l-3.48-12.13h-29.09L311.13 109zm132.89-65.35c6.14 0 12.11 3.29 12.11 10A12 12 0 0 1 417 65.76h-6.13V43.65zm17.39-8.45h-51V109h27.25V78.24h23.76a21.52 21.52 0 0 0 0-43zm31 73.79h27.26V78.17h45.21V66.05h-45.25V47.28h45.21V35.16h-72.46zm192-30.82h45.22V66h-45.23V47.28h45.22V35.16h-72.48V109h72.48V96.87h-45.22zm-76.4-34.5c6 0 12.11 3.29 12.11 10a12.11 12.11 0 0 1-12.11 12.11h-5.91V43.66zm38.9 46.27zm0 .61v-.61a18.46 18.46 0 0 0-18.45-17.85 18.45 18.45 0 1 0 0-36.9h-54.08V109h27.71V78.42h5.91a12.12 12.12 0 0 1 12.11 12.11V109h26.81z" fill="#999" data-name="Camada 1"/></g></g></g></svg>