<svg xmlns="http://www.w3.org/2000/svg" viewBox="0 0 150 18.24"><g data-name="Layer 2"><g data-name="Layer 1"><g data-name="Layer 2"><path d="M128.83 9.16a6.69 6.69 0 0 1-1.44 4.18 13.57 13.57 0 0 1-4.18 3.46 16 16 0 0 1-5.62-3.24 6.13 6.13 0 0 1-2.09-4.39 5.79 5.79 0 0 1 2.09-4.39 14.42 14.42 0 0 1 5.69-3.24 12.93 12.93 0 0 1 4.1 3.38 6.74 6.74 0 0 1 1.44 4.25zm5.62-6a18.74 18.74 0 0 1 6.12 4.61 9.65 9.65 0 0 1 2.16 5.91 9.3 9.3 0 0 1-.5 3.1 15.6 15.6 0 0 0 5.62-3.24A6.11 6.11 0 0 0 150 9.16c0-2.52-1.73-4.68-5-6.48A25.83 25.83 0 0 0 132.72 0L127 .51a21.19 21.19 0 0 1 7.49 2.66zM125.73.8l-1.51.36a16.1 16.1 0 0 1 6 4.46 9.08 9.08 0 0 1 2.23 6 9.5 9.5 0 0 1-2.74 6.48l3 .14 3-.14a8.43 8.43 0 0 0 2.09-5.47 9.55 9.55 0 0 0-3.31-6.91 21.9 21.9 0 0 0-8.79-4.9zM16.85 4h.07l-3 12.6h3.24l3.36-15.22h-5.11l-6 11-1.08-11h-5L0 16.64h2.88L5.69 4h.07L7 16.64h2.87l7-12.6zm9.65 3.28a3.08 3.08 0 0 0-2.09.72 6 6 0 0 0-1.08 2h5l.07-.79a1.67 1.67 0 0 0-1.9-1.88zm4.68 2.16a10.83 10.83 0 0 1-.29 2.56H23c0 1.87 1 2.81 3.1 2.81a7.77 7.77 0 0 0 3.42-.81l-.36 2.3a10.6 10.6 0 0 1-3.6.72 6.05 6.05 0 0 1-4-1.22 4.63 4.63 0 0 1-1.47-3.8A7.26 7.26 0 0 1 22 7.21a6 6 0 0 1 4.61-2.09A5.16 5.16 0 0 1 30 6.2a4.18 4.18 0 0 1 1.22 3.24zm6.12-1.87h2.59l.5-2.16h-2.66L38.45 2l-3.16 1.1-.5 2.3h-2.1l-.5 2.16h2.16l-.86 3.82a9.61 9.61 0 0 0-.36 2.62c0 2 1.15 3 3.38 3l1.58-.36.5-2.23-1.44.29c-.72 0-1.08-.36-1.08-1.15l.14-1.08 1.08-4.9zm10.23.36l1.08.14.65-2.88-1.16-.07a3.11 3.11 0 0 0-1.94.72 4.23 4.23 0 0 0-1.37 1.66h-.07l.36-2.16h-2.74L40 16.64h3l1-5a6 6 0 0 1 1.08-2.45A2.85 2.85 0 0 1 47.53 8zm8-.5a3 3 0 0 0-2.59 1.51 5.73 5.73 0 0 0-.86 3.1c0 1.73.79 2.66 2.3 2.66A3 3 0 0 0 57 13.12a5.32 5.32 0 0 0 .86-3c0-1.8-.79-2.66-2.3-2.66zm3.89-1a4.73 4.73 0 0 1 1.44 3.67 6.79 6.79 0 0 1-1.87 5 6.68 6.68 0 0 1-4.84 1.9 5.22 5.22 0 0 1-3.82-1.44A5.26 5.26 0 0 1 49 11.82a6.52 6.52 0 0 1 6.34-6.7h.29a5.26 5.26 0 0 1 3.74 1.3zm14-1h-3.21l-4.39 8.28h-.07l-1.16-8.3h-3l1.94 11.23h3.24l6.61-11.23zM79.93.66h-2.88l-1.8 3.17h1.87zm-7.13 16h3l2.4-11.32h-3l-2.4 11.3zm13.2-5.2h-1c-2.59 0-3.82.72-3.82 2.16a1 1 0 0 0 .5.94 2.09 2.09 0 0 0 1 .22 2.84 2.84 0 0 0 2.3-.94 7.53 7.53 0 0 0 1-2.38zm.36-1.73l.07-1c0-.94-.79-1.44-2.3-1.44a7.94 7.94 0 0 0-3.67.94l.43-2.38a10.51 10.51 0 0 1 3.82-.72 5.64 5.64 0 0 1 3.1.72 3.25 3.25 0 0 1 1.3 2.74 30.31 30.31 0 0 1-.58 3.82l-.79 4.25h-2.48l.29-1.73h-.07a4.68 4.68 0 0 1-3.6 2.07 3.93 3.93 0 0 1-2.52-.86 2.88 2.88 0 0 1-1-2.45 3.37 3.37 0 0 1 2.44-3.39 13.64 13.64 0 0 1 4.46-.58zm12.3-1.94l.65-2.16a11.13 11.13 0 0 0-3.24-.5 6.83 6.83 0 0 0-3.31.79 3.14 3.14 0 0 0-1.51 2.81 3.26 3.26 0 0 0 1.87 2.74l1.3.94a1.48 1.48 0 0 1 .65 1.15c0 .86-.72 1.22-2 1.22a5.41 5.41 0 0 1-2.81-.86l-.65 2.38A7.22 7.22 0 0 0 93 17a6.79 6.79 0 0 0 3.46-.86 3.31 3.31 0 0 0 1.66-3q0-1.51-1.94-2.81l-1.3-.94a1.25 1.25 0 0 1-.65-.94c0-.79.65-1.15 1.94-1.15a8.72 8.72 0 0 1 2.45.5z" fill="#999" data-name="Layer 1-2"/></g></g></g></svg>