<svg xmlns="http://www.w3.org/2000/svg" viewBox="0 0 276.3 53.55"><g data-name="Layer 2"><g data-name="Layer 1"><g data-name="Layer 2"><path d="M253 16.68a17.49 17.49 0 0 0-6.66-1.07H246a39.19 39.19 0 0 0-6.54.64c-.39.07-.55.27-.55.73v3.33c0 .42.21.56.68.49a41.85 41.85 0 0 1 5.79-.52h.23c2.3 0 4.16.21 5.27 1s1.67 1.87 1.67 4.29v.72a28.37 28.37 0 0 0-5.55-.59h-.5c-3.1 0-6 .75-7.88 2.48a7.87 7.87 0 0 0-2.4 5.84v.22c0 5.16 3.56 8.34 10.8 8.34h1.29a11.67 11.67 0 0 0 7.18-2.19c1.87-1.55 2.6-3.84 2.6-7.5v-7.42C258 20.37 256 18 253 16.68zm-.46 16.12c0 2-.06 3.1-.77 3.92a5.24 5.24 0 0 1-3.94 1.3H247c-3.33 0-5.27-1.34-5.27-3.9a3.75 3.75 0 0 1 1.18-2.84c.85-.73 2.08-1.08 4.2-1.08h.47a20.43 20.43 0 0 1 5 .56zm23.18-17.18h-3c-4.29 0-7.64 1.49-9.07 4.6a12.55 12.55 0 0 0-.81 5.08v16.34c0 .36.18.51.55.51h4.46c.37 0 .54-.15.54-.51V28a32.61 32.61 0 0 1 .14-4.21c.25-2.27 1.63-3.33 4.84-3.33h2.37c.38 0 .55-.2.55-.57v-3.71a.5.5 0 0 0-.63-.57zm-107 26.53h4.83a.74.74 0 0 0 .77-.45c3.13-5.89 7.91-15.94 8.24-25.06 0-.36-.14-.52-.61-.52h-4.5c-.52 0-.67.17-.7.64a50 50 0 0 1-1.94 10.63 58 58 0 0 1-3.69 9.48 58 58 0 0 1-3.69-9.48 49.93 49.93 0 0 1-1.94-10.69c0-.48-.29-.57-.75-.57h-4.53c-.48 0-.61.22-.58.71.64 8.94 3.41 15.88 8.24 24.89a.83.83 0 0 0 .88.42zm35.88-11.68c1.2.45 2.2.81 3.39 1.24 2.55.91 3.64 1.62 3.64 3.18 0 2-1.7 3.09-5.55 3.09H206a23.45 23.45 0 0 1-6.84-1.13c-.45-.15-.7 0-.7.48v3.32c0 .42.07.67.54.83a24.44 24.44 0 0 0 7.31 1.12h.18c6.83 0 10.54-3 10.54-8v-.07a6.6 6.6 0 0 0-1.79-4.75 15.65 15.65 0 0 0-5.54-3l-3.52-1.3c-2.22-.81-2.84-1.57-2.84-2.71 0-1.89 1.85-2.63 4.83-2.63h.23a36.58 36.58 0 0 1 6.32.7c.47.09.73 0 .73-.5V17c0-.45-.12-.58-.59-.68a38.31 38.31 0 0 0-6.29-.71h-.4c-3.49 0-6.07.65-7.8 2.15A6.9 6.9 0 0 0 198 23v.16a6.35 6.35 0 0 0 1.91 4.84 13.82 13.82 0 0 0 4.69 2.47zM232 42.15a.52.52 0 0 0 .59-.54v-3.72a.52.52 0 0 0-.49-.54h-.69a4.61 4.61 0 0 1-3.52-1.13c-.88-.93-1.06-2.43-1.06-4.22V20.73h4.9c.37 0 .55-.14.55-.51v-3.6c0-.36-.18-.5-.55-.5h-4.9v-4.68c0-.36-.18-.51-.56-.51h-4.46c-.37 0-.54.15-.54.51v20.87c0 3.63.72 6 2.32 7.54s3.84 2.3 7.23 2.3zM118 15.62h-1.4c-3.87 0-6.44 1-7.69 2.55-1.25-1.53-4-2.55-7.85-2.55h-1.41c-4.37 0-7.94 1.52-9.38 4.63a12.55 12.55 0 0 0-.82 5.08v16.22a.54.54 0 0 0 .48.6h4.49a.54.54 0 0 0 .57-.6V28a32.61 32.61 0 0 1 .14-4.21c.25-2.27 1.94-3.37 5.15-3.37h.37c3.21 0 5 1.1 5.22 3.37A41.34 41.34 0 0 1 106 28v13.56a.54.54 0 0 0 .49.59H111a.57.57 0 0 0 .57-.64V28a32.61 32.61 0 0 1 .14-4.21c.25-2.27 2-3.37 5.22-3.37h.37c3.21 0 4.89 1.1 5.14 3.37a42.1 42.1 0 0 1 .14 4.21v13.56a.54.54 0 0 0 .49.59h4.5a.57.57 0 0 0 .57-.64V25.32a12.57 12.57 0 0 0-.82-5.08c-1.43-3.11-5.01-4.62-9.32-4.62zm37.84 20.68a23.81 23.81 0 0 0 .84-7.18 23.82 23.82 0 0 0-.84-7.18c-1.35-4.52-4.93-6.32-10.72-6.32h-.69c-5.79 0-9.36 1.8-10.72 6.32a24 24 0 0 0-.83 7.18 24 24 0 0 0 .83 7.18c1.36 4.52 4.93 6.32 10.72 6.32h.69c5.8 0 9.37-1.8 10.72-6.32zm-5-3.38c-.43 4.22-2.56 4.88-6 4.88h-.14c-3.42 0-5.55-.66-6-4.88a32.9 32.9 0 0 1-.24-3.8 32.93 32.93 0 0 1 .24-3.8c.43-4.22 2.56-4.88 6-4.88h.14c3.42 0 5.55.66 6 4.88a33 33 0 0 1 .24 3.8 33 33 0 0 1-.25 3.8zm41.34-16.8h-4.46c-.37 0-.55.14-.55.51v25c0 .36.18.51.55.51h4.46c.37 0 .55-.15.55-.51v-25c0-.37-.19-.51-.56-.51zm-170.46-6c1.89 1.9 5.45 7.5 7.28 10.44 2.06 3.38 4.87 5.74 8.13 5.4 2.67-.28 4.4-2 5.58-4.68s3.08-8 5.48-13.08C50.76 2.63 55.72-.24 60 0c3.9.25 6.95 3 8.84 7.43a46.78 46.78 0 0 1 3.48 15.67 57.55 57.55 0 0 1-.55 13.07 20.93 20.93 0 0 1-.68 3.2c-.74 2.24-2.61 4.1-4.93 3.77S63.18 40.95 63 39a25.21 25.21 0 0 1 .2-3.64 76.66 76.66 0 0 0 .59-8.74c0-3.39-.62-5.7-3-6.46S55.29 22 53 27a125.67 125.67 0 0 0-5 14.27c-2.4 7.59-7.06 10-13.38 10.26s-10-3.53-12.11-7c-2.32-3.87-5.16-9-6.81-11.81-1.39-2.4-2.85-4.31-4.59-3.93-1 .23-2.6.75-2.43 4.71.12 3 1.53 7.11 2.58 10.56a37.81 37.81 0 0 1 1.17 4.52c.44 2.86-.77 4.11-1.82 4.63A4 4 0 0 1 6 52.08a12 12 0 0 1-1.5-2.54A63.4 63.4 0 0 1 .58 36a39.47 39.47 0 0 1 .65-16.55c2.84-11.54 9-13.2 12.4-13.25 4.25-.07 6.29 2.14 8.08 3.91z" fill="#999" data-name="Layer 1-2"/></g></g></g></svg>