<svg xmlns="http://www.w3.org/2000/svg" viewBox="0 0 439.38 64.86"><g data-name="Layer 2"><g data-name="Layer 1"><g data-name="Layer 2"><path d="M242.38 63.32a10.15 10.15 0 0 1-10.12-10.18v-.21a.34.34 0 0 0 0-.08V3a1.47 1.47 0 0 1 1.47-1.47h10v50.34a.81.81 0 0 0 .8.8h33.91a.62.62 0 0 1 .63.61v9.4a.62.62 0 0 1-.62.62h-36.07M347 52.59h-43a.81.81 0 0 1-.81-.81V37.45h28.36c.16 0 .29-.19.29-.43v-9.18c0-.24-.13-.43-.29-.43h-28.27V13.08a.81.81 0 0 1 .81-.8h42.79a.63.63 0 0 0 .63-.62V2.17a.63.63 0 0 0-.63-.62h-53.63A1.48 1.48 0 0 0 291.77 3v49.84a.35.35 0 0 1 0 .08v.21a10.1 10.1 0 0 0 9.77 10.18H347a.62.62 0 0 0 .62-.62v-9.48a.62.62 0 0 0-.62-.62m29.47-32.32l.1.11.07.08.11.15c5 5.94 15.47 10.39 21.46 10.39h.16a.72.72 0 0 0 .54-1.17l-17-20.63-4.37-5A6.79 6.79 0 0 0 373 1.69h-8.33a1.63 1.63 0 0 0-1.61.87 2.41 2.41 0 0 0 .68 2.51zM403.92 31h.17c6 0 16.5-4.43 21.41-10.37l.11-.15.07-.09.09-.1 12.8-15.23a2.41 2.41 0 0 0 .68-2.5 1.63 1.63 0 0 0-1.61-.86h-8.33a6.78 6.78 0 0 0-4.56 2.45l-4.38 5-17 20.62a.72.72 0 0 0 .52 1.17m34.68 29l-12.79-15.25-.1-.11-.06-.08-.11-.15C420.59 38.41 410.07 34 404.09 34h-.15a.72.72 0 0 0-.54 1.17l17 20.62 4.37 5a6.78 6.78 0 0 0 4.56 2.45h8.33a1.64 1.64 0 0 0 1.61-.87 2.41 2.41 0 0 0-.68-2.51M398.38 34h-.17c-6 0-16.5 4.43-21.41 10.37l-.11.15-.07.08-.09.1-12.8 15.21a2.4 2.4 0 0 0-.68 2.5 1.63 1.63 0 0 0 1.61.87H373a6.77 6.77 0 0 0 4.55-2.45l4.38-5 17-20.61a.73.73 0 0 0 .1-.76.71.71 0 0 0-.62-.42M67 1.54h-8.7A1.5 1.5 0 0 0 56.8 3v50.31C47.24 40.94 21 6.59 19.74 5.13 16.61 1.61 12.9 1.38 9.41 1.61A10.17 10.17 0 0 0 0 11.9v49.86a1.5 1.5 0 0 0 1.5 1.5h8.7a1.5 1.5 0 0 0 1.5-1.5V11.49c9.61 12.38 35.8 46.72 37.11 48.19 3.13 3.52 6.84 3.74 10.33 3.52a10.17 10.17 0 0 0 9.41-10.3V3a1.5 1.5 0 0 0-1.49-1.51H67M112.57 0a32.43 32.43 0 1 1-32.44 32.44A32.43 32.43 0 0 1 112.57 0m0 54.33a21.9 21.9 0 1 0-21.9-21.9 21.9 21.9 0 0 0 21.9 21.9M208.43 31c7.32 3.61 8.86 10 8.86 14.79a16.42 16.42 0 0 1-5.63 12.75c-5.65 4.77-14 4.77-20.72 4.77h-22.65a10.19 10.19 0 0 1-9.91-10.19v-.2a.27.27 0 0 0 0-.08V3a1.48 1.48 0 0 1 1.48-1.48H191c5.58 0 14.93 0 20.2 6.66a15.37 15.37 0 0 1 3.14 9.74c0 6.91-3.59 10.21-5.75 11.57h-.09a.81.81 0 0 0-.44.73.8.8 0 0 0 .45.72m-38.55-5.45a.81.81 0 0 0 .8.81h25.37c4 0 8.07-3.25 8.07-7.26s-4.06-7.26-8.07-7.26h-25.45a.81.81 0 0 0-.8.81zM198.1 53c4.54 0 9-3.68 9-8.21s-4.49-8.21-9-8.21h-27.42a.81.81 0 0 0-.8.8v14.83a.81.81 0 0 0 .8.81h27.42" fill="#999" data-name="Layer 1-2"/></g></g></g></svg>