<svg xmlns="http://www.w3.org/2000/svg" viewBox="0 0 1112.88 190.59"><g data-name="Layer 2"><g data-name="Layer 1"><g data-name="Layer 2"><path d="M105.18 6.4H0v174.01a5 5 0 0 0 5 5h44.67v-35.47h55.51c50.51 0 81.88-27.56 81.88-71.92 0-44.18-31.38-71.62-81.88-71.62zm-.85 96.48H49.65V53.47h54.67C124.45 53.47 136 62.42 136 78c0 15.81-11.55 24.87-31.67 24.87zM376.82 6.4h-44.68l.08 67.39h-78.67V11.43a5 5 0 0 0-5-5H204v4.5a4.72 4.72 0 0 0-.06.55v169a5 5 0 0 0 5 5h44.59v-64.35h78.68v59.28a5 5 0 0 0 5 5h44.62v-4.55a5 5 0 0 0 0-.5v-169a5 5 0 0 0-5-5zm80.5 5a5 5 0 0 0-5-5h-44.79V57h.15v123.41a5 5 0 0 0 5 5h44.72v-50.6h-.09zm140.78 127h-63.42v-127a5 5 0 0 0-5-5H485v174.01a5 5 0 0 0 5 5h113.14v-42a5 5 0 0 0-5-5zm193.74-8.53l-38.14-9.78-2.23 3S736.8 146 709 146c-29.32 0-49-20.39-49-50.75C660 64.64 679.66 44 709 44a50.39 50.39 0 0 1 39.54 19l2.56 2.79 38-10a5 5 0 0 0 3.14-7.32C775.43 18.12 744.31 0 709 0c-54.18 0-95 41-95 95.29s40.86 95.3 95 95.3c37.63 0 70.64-20.59 86.14-53.73a5 5 0 0 0-3.28-7zM903.82 0c-54.19 0-95 41-95 95.29s40.86 95.3 95 95.3c53.43 0 95.29-41.86 95.29-95.3S957.26 0 903.82 0zm0 146.54c-28.86 0-49-21.08-49-51.25 0-30.65 19.7-51.25 49-51.25s49.26 20.59 49.26 51.25c0 30.18-20.25 51.25-49.26 51.25zm209.06-49.34v-.09a7.9 7.9 0 0 0-2.9-5.91l-78-63.48a7.92 7.92 0 0 0-8.39-1 7.78 7.78 0 0 0-1.37.85 5.75 5.75 0 0 0-1.84 4.2c-.06 1.6 1.4 4.79 2 6A124.74 124.74 0 0 1 1037 96.54v1.3a124.74 124.74 0 0 1-14.62 58.75c-.6 1.25-2 4.45-2 6a5.75 5.75 0 0 0 1.84 4.2 7.79 7.79 0 0 0 1.37.85 7.92 7.92 0 0 0 8.39-1l78-63.48a7.9 7.9 0 0 0 2.9-5.91z" fill="#999" data-name="Layer 1-2"/></g></g></g></svg>