<svg xmlns="http://www.w3.org/2000/svg" viewBox="0 0 213.26 46.13"><g data-name="Layer 2"><g data-name="Layer 1"><g data-name="Layer 2"><path d="M5.41 25.21C-.32 30-1.71 37.81 2.26 42.57s11.86 4.75 17.64 0 7.16-12.66 3.1-17.41-11.87-4.75-17.59.05zm14.18 15c-4.59 3.85-10.94 3.85-14.13 0S3.39 30.17 8 26.35s10.93-3.87 14.13 0 2 10-2.54 13.89zm-11-13.38C4.37 30.33 3.34 36 6.28 39.47s8.66 3.46 12.84 0 5.21-9.19 2.32-12.65-8.66-3.47-12.89 0zM19 37.73c-3.39 2.77-8 2.82-10.35 0s-1.5-7.33 1.86-10.12 7.94-2.84 10.26 0 1.55 7.33-1.8 10.12zm6-15.62c4.43 4.39 12.27 3.62 17.53-1.7s5.93-13.17 1.55-17.56-12.27-3.62-17.53 1.7S20.57 17.72 25 22.11zm1.19-.83c-3.56-3.51-3-9.81 1.24-14.1s10.57-4.85 14-1.34 3 9.81-1.24 14.1-10.45 4.86-14 1.35zm.57-.62c3.2 3.2 8.92 2.63 12.79-1.24s4.33-9.61 1.13-12.81S31.76 4 27.89 7.86s-4.33 9.6-1.14 12.81zm.88-.62c-2.58-2.58-2.17-7.18.88-10.28s7.68-3.56 10.26-1S41 15.89 37.9 19s-7.69 3.59-10.27 1zM16.49 5.48C12.83 1.71 7.31 1.14 4.17 4.19s-2.68 8.63 1 12.4 9.18 4.34 12.32 1.29 2.72-8.63-1-12.4zM6.8 16.28c-2.94-3-3.3-7.49-.77-9.92s6.91-2 9.85 1 3.3 7.44.77 9.92-6.91 1.99-9.85-1zm8.77-8.47c-2.68-2.74-6.7-3.15-9-.93s-2 6.25.72 9 6.7 3.15 9 .93 1.9-6.21-.73-9zm-7.12 7.85C6.28 13.44 6 10.23 7.88 8.43S12.93 7 15.1 9.2s2.42 5.42.57 7.23-5.06 1.45-7.22-.77zM28.3 29c-2.84 3.36-1.91 8.83 2.11 12.24s9.59 3.46 12.38.15 1.91-8.83-2.11-12.24-9.54-3.47-12.38-.15zm.62.77c2.27-2.69 6.7-2.63 10 .1s4 7.13 1.7 9.81-6.7 2.63-10-.1-4-7.09-1.7-9.77zm.46.36c-2.06 2.43-1.39 6.4 1.55 8.94s7 2.53 9 .1 1.39-6.4-1.55-8.94-6.93-2.49-9-.06zm.46.62c1.65-2 4.9-1.91 7.22.1S40 36.11 38.3 38s-4.9 1.91-7.22-.1-2.88-5.2-1.23-7.11zM120 20.93c0-3.51 2.11-7 7.32-7s7.37 3.46 7.37 7c0 5.22-3.76 7-7.37 7s-7.32-1.79-7.32-7zm11.65 0a4 4 0 0 0-4.28-4.34 4 4 0 0 0-4.28 4.34c0 2.79 1.55 4.49 4.28 4.49s4.27-1.71 4.27-4.5zm28.57-4.18c-.57-1.65-2.06-3-6.45-3-2.42 0-4.9.62-4.9 2.32 0 .77.46 1.6 4.13 2.07l4.33.67c4.13.62 6.55 2.22 6.55 5.32 0 4.34-4.13 6-9 6-7.89 0-9.8-3.87-10.21-5.27l3.45-1.08c.67 1.34 2 3.31 6.86 3.31 2.94 0 5.36-1 5.36-2.53 0-1.19-1.34-2-4-2.32l-4.34-.7c-4.23-.57-6.6-2.43-6.6-5.22 0-5.53 7.17-5.53 8.56-5.53 7.89 0 9.28 3.67 9.75 5zM67 16.69c-.57-1.65-2.06-3-6.45-3-2.42 0-4.9.62-4.9 2.32 0 .77.46 1.6 4.13 2.07l4.33.67c4.13.62 6.55 2.22 6.55 5.32 0 4.34-4.18 6-9.08 6-7.89 0-9.8-3.87-10.21-5.27l3.45-1.08c.67 1.34 2 3.31 6.86 3.31C64.62 27 67 26 67 24.5c0-1.19-1.34-2-4-2.32l-4.38-.62c-4.23-.57-6.6-2.43-6.6-5.22 0-5.53 7.17-5.53 8.56-5.53 7.89 0 9.28 3.67 9.75 5zm18.18 10.74h-3v-1.34a11.2 11.2 0 0 1-5.72 1.76c-1.75 0-5.11-.72-5.11-4 0-4.44 6.6-5.06 10.83-5.32v-.46c0-1-.88-1.7-3.4-1.7-2.78 0-3.35 1-3.56 1.76H72c.72-3.56 4.23-4.18 6.65-4.18 6.34 0 6.45 3.1 6.45 4.91v8.57zm-3-6.56a20.94 20.94 0 0 0-4.69.67c-1.91.46-2.73 1.08-2.78 2.22s.72 1.81 2.22 1.81a10.25 10.25 0 0 0 5.31-1.7v-3zm4.18-6.51h3V16a6.42 6.42 0 0 1 4.84-2c2.73 0 5.16 1.14 5.16 5.16v8.42h-3v-7.33c0-2.58-.77-3.67-2.84-3.67a4.57 4.57 0 0 0-4.13 1.91v9h-3zm93.54-4h3v17.8h-3zm17.33 17.1h-3v-1.63a6.33 6.33 0 0 1-4.9 2.07c-2.73 0-5.11-1.14-5.11-5.16v-8.43h3v7.29c0 2.58.77 3.72 2.78 3.72a4.76 4.76 0 0 0 4.18-2v-9h3v13.16zm13.1-1.7a6.91 6.91 0 0 1-5.21 2.12 6.73 6.73 0 0 1-6.92-6.54v-.54a6.64 6.64 0 0 1 6.34-6.92h.66a7.68 7.68 0 0 1 5.05 1.81v-6h3v17.79h-3zm-.05-7.49a6.32 6.32 0 0 0-4.38-1.81 4.31 4.31 0 0 0-4.58 4v.42a4.26 4.26 0 0 0 4.12 4.4h.42a7.07 7.07 0 0 0 4.49-1.91v-5.08zm-31.66 9.14h-3v-1.32a11.2 11.2 0 0 1-5.72 1.76c-1.75 0-5.11-.72-5.11-4 0-4.44 6.6-5.06 10.83-5.32v-.46c0-1-.88-1.7-3.4-1.7-2.78 0-3.35 1-3.56 1.76h-3.15c.72-3.56 4.23-4.18 6.65-4.18 6.34 0 6.45 3.1 6.45 4.91v8.55zm-3-6.56a20.94 20.94 0 0 0-4.69.67c-1.93.48-2.83 1.11-2.93 2.25s.72 1.81 2.22 1.81a10.25 10.25 0 0 0 5.31-1.7v-3zM116.74 24c-.83 1.34-2.63 2.89-5.93 2.89-3.92 0-7-2.22-7-6.46 0-3.82 2.11-6.66 7.22-6.66 3.82 0 5.36 2.07 5.78 2.94l3.19-1.16c-.83-1.91-3-5-9.23-5-7.32 0-10.67 4-10.67 9.35 0 6.71 4.59 10 10.36 10 6.08 0 8.51-2.58 9.54-4.75zm27.18-10a4.45 4.45 0 0 0-.77-.05 5 5 0 0 0-4.59 2.38h-.05v-2h-3v13.1h3v-7c0-.93 0-3.51 3.87-3.51a7.13 7.13 0 0 1 1.55.15zm-37.39 25.57a5.74 5.74 0 0 1-2.58.62 3.26 3.26 0 1 1-.36-6.51h.41a3.56 3.56 0 0 1 2.48.77l-1 1a2 2 0 0 0-1.5-.57 1.84 1.84 0 0 0-1.91 2 1.9 1.9 0 0 0 1.8 2h.11a2.46 2.46 0 0 0 1.29-.31v-1h-1.17v-1.15h2.42zm1-3.82h1.29v.67a1.29 1.29 0 0 1 1.24-.77 1 1 0 0 1 .41 0v1.19a2.19 2.19 0 0 0-.57-.1c-1 0-1.13.57-1.13 1.45V40h-1.29v-4.25zm7.66 4.25H114v-.57a1.41 1.41 0 0 1-1.24.67c-1.34 0-1.55-.88-1.55-2v-2.3h1.29v2.07c0 .46 0 1.14.67 1.14s.77-.52.77-1.08V35.8h1.29zm1.08-4.29h1.19v.57a1.67 1.67 0 0 1 1.29-.67 2 2 0 0 1 2.06 2.22 2.07 2.07 0 0 1-1.81 2.26h-.14a1.56 1.56 0 0 1-1.34-.57V42h-1.29v-6.25zm2.22 3.2a1 1 0 0 0 1-1v-.08a1 1 0 0 0-.92-1.08h-.08a1 1 0 0 0-1 1v.08a1 1 0 0 0 .82 1.16h.18zm5.36-3.31a2.24 2.24 0 0 1 2.37 2.11v.11A2.21 2.21 0 0 1 124 40h-.18a2.24 2.24 0 0 1-2.37-2.11v-.11a2.21 2.21 0 0 1 2.23-2.19h.14zm0 3.31a1 1 0 0 0 1-1v-.08a1 1 0 0 0-.92-1.08h-.08a1 1 0 0 0-1 1v.08a.94.94 0 0 0 1 1.17zM134 40h-1.19v-.57a1.67 1.67 0 0 1-1.29.67 2 2 0 0 1-2.06-2.22 2.07 2.07 0 0 1 1.86-2.26h.14a1.56 1.56 0 0 1 1.34.57v-2.82h1.29V40zm-2.27-3.2a1 1 0 0 0-1 1v.08a1 1 0 0 0 .92 1.08h.08a1.09 1.09 0 0 0 0-2.17zm7.32 2.43a2.38 2.38 0 0 1-1.8.83 2.24 2.24 0 0 1-2.37-2.06v-.11a2.21 2.21 0 0 1 2.19-2.23h.18a2 2 0 0 1 2 2.22v.41h-3a1 1 0 0 0 1 .83 1.08 1.08 0 0 0 .93-.52zM138 37.4a.81.81 0 0 0-.79-.83.91.91 0 0 0-.93.83zm4.85-3.56h2.06l1.39 4h.05l1.39-4h2.06V40h-1.34v-4.72h-.05L146.8 40h-1l-1.6-4.75V40h-1.34zm12.07 5.42a2.38 2.38 0 0 1-1.8.83 2.24 2.24 0 0 1-2.37-2.09v-.11a2.21 2.21 0 0 1 2.19-2.23h.18a2 2 0 0 1 2 2.22v.41h-3a1 1 0 0 0 1 .83 1.08 1.08 0 0 0 .93-.52zm-1.08-1.86a.81.81 0 0 0-.79-.83.91.91 0 0 0-.93.83zm6.52 2.6h-1.19v-.57a1.67 1.67 0 0 1-1.29.67 2 2 0 0 1-2.06-2.22 2.07 2.07 0 0 1 1.86-2.26h.14a1.56 1.56 0 0 1 1.34.57v-2.82h1.29V40zm-2.27-3.2a1 1 0 0 0-1 1v.08A1 1 0 0 0 158 39h.08a1 1 0 0 0 1-1v-.08a.94.94 0 0 0-.82-1h-.18zm4-3.15a.77.77 0 1 1-.77.77.79.79 0 0 1 .74-.74zm-.62 2.07h1.29V40h-1.29zm5.11 1.39a.77.77 0 0 0-.67-.31 1 1 0 0 0-1 1v.08a1 1 0 0 0 .92 1.08h.08a.92.92 0 0 0 .67-.31l.88.93a2.18 2.18 0 0 1-1.5.57 2.24 2.24 0 0 1-2.4-2.07V38a2.21 2.21 0 0 1 2.19-2.23h.18a2.1 2.1 0 0 1 1.5.57zm2-3.46a.77.77 0 1 1-.77.77.76.76 0 0 1 .75-.74zm-.67 2.07h1.29V40h-1.29zm2.27 0h1.24v.57a1.41 1.41 0 0 1 1.24-.67c1.34 0 1.55.88 1.55 2V40h-1.29v-2.08c0-.46 0-1.14-.67-1.14s-.77.52-.77 1.08V40h-1.29zm7.68 3.72a1.53 1.53 0 0 1-1.34.62 1.36 1.36 0 0 1-1.52-1.19v-.07c0-1.45 1.8-1.5 2.89-1.5a.77.77 0 0 0-.77-.77h-.06A1.54 1.54 0 0 0 176 37l-.72-.72a2.66 2.66 0 0 1 1.86-.67c1.55 0 2 .77 2 2.22V40H178v-.57zm-.31-1.34c-.41 0-1.29 0-1.29.62 0 .31.31.46.62.46.52 0 1-.26 1-.77v-.26h-.31zm5.05-4.29h2.32c1.29 0 2.37.41 2.37 1.86s-1 1.91-2.27 1.91h-1V40h-1.34v-6.2zm1.4 2.61h.93c.46 0 1-.15 1-.72s-.67-.72-1.19-.72H184zm4-.67h1.29v.67a1.29 1.29 0 0 1 1.24-.77 1 1 0 0 1 .41 0v1.19a2.19 2.19 0 0 0-.57-.1c-1 0-1.13.57-1.13 1.45V40h-1.34v-4.25zm4.23-2.07a.77.77 0 1 1-.77.77.76.76 0 0 1 .72-.77zm-.67 2.07h1.29V40h-1.29zm1.8 0h1.44l1 2.89h.05l1-2.89h1.34L196.46 40h-1.39zm8 3.72a1.53 1.53 0 0 1-1.34.62 1.36 1.36 0 0 1-1.49-1.21v-.08c0-1.45 1.8-1.5 2.89-1.5a.77.77 0 0 0-.77-.77h-.06a1.54 1.54 0 0 0-1.08.52l-.72-.72a2.66 2.66 0 0 1 1.86-.67c1.55 0 2 .77 2 2.22V40h-1.19v-.57zm-.36-1.34c-.41 0-1.29 0-1.29.62 0 .31.31.46.62.46.52 0 1-.26 1-.77v-.26H201zm6.75 1.87h-1.19v-.57a1.67 1.67 0 0 1-1.29.67 2 2 0 0 1-2.06-2.22 2.07 2.07 0 0 1 1.86-2.26h.14a1.56 1.56 0 0 1 1.34.57v-2.82h1.29V40zm-2.22-3.2a1 1 0 0 0-1 1v.08a1 1 0 0 0 .92 1.08h.08a1 1 0 0 0 1-1v-.08a1 1 0 0 0-.95-1h-.05zm5.93 2.63a1.53 1.53 0 0 1-1.34.62 1.36 1.36 0 0 1-1.49-1.21v-.08c0-1.45 1.8-1.5 2.89-1.5a.77.77 0 0 0-.77-.77h-.06a1.54 1.54 0 0 0-1.08.52l-.72-.72a2.66 2.66 0 0 1 1.86-.67c1.55 0 2 .77 2 2.22V40h-1.19v-.57zm-.31-1.34c-.41 0-1.29 0-1.29.62 0 .31.31.46.62.46.52 0 1-.26 1-.77v-.26h-.31z" fill="#999" data-name="Layer 1-2"/></g></g></g></svg>