<svg xmlns="http://www.w3.org/2000/svg" viewBox="0 0 99.82 19.35"><g data-name="Layer 2"><g data-name="Layer 1"><g data-name="Layer 2"><path d="M57.46 9.57c0 4.32-2.18 9.38-10.62 9.38h-8.48a1 1 0 0 1-.29-.73.82.82 0 0 1 .28-.67h1a.5.5 0 0 0 .43-.53V8.54a1.78 1.78 0 0 0-1.55-2H38c-1.13 0-2.51 1.14-3.22 3.07v7.54a.44.44 0 0 0 .44.43h.85a.87.87 0 0 1 .25.67 1 1 0 0 1-.25.73h-7.16l.5-1.38h1.09a.55.55 0 0 0 .47-.45V7.47a.7.7 0 0 0-.62-.69h-1.13a.93.93 0 0 1-.33-.78 1.12 1.12 0 0 1 .33-.8h5a.36.36 0 0 1 .38.39v1.65a4.52 4.52 0 0 1 4.3-2.44c3 0 4.82 1.48 4.82 4.17v8.13a.57.57 0 0 0 .48.49H46c4.34 0 6.79-2.43 6.79-8 0-5.19-2.48-7.82-6.42-7.82h-2.76s-.36-.15-.36-.81a.93.93 0 0 1 .36-.78h3.06c6.08-.01 10.79 2.61 10.79 9.39zm-29.33 8L27.64 19h-3c-.77 0-1.34-.68-1.51-1.65a4.94 4.94 0 0 1-4.13 1.8 4.09 4.09 0 0 1-4.27-4.44c0-2.73 2.38-4.44 8.19-4.11V8.54a2.14 2.14 0 0 0-2.19-2.43 3.68 3.68 0 0 0-1.7.46 5.19 5.19 0 0 0-1.42 1.3.58.58 0 0 1-.44.26h-.79a.26.26 0 0 1-.26-.26v-2c0-.22 0-.39.22-.45a14.1 14.1 0 0 1 4.84-.73 6.66 6.66 0 0 1 4.24 1.2A4.07 4.07 0 0 1 26.68 9v7.39c0 .61.13 1.14 1 1.24zm-5.29-5.43c-3.86 0-4.67.94-4.67 2.66a1.87 1.87 0 0 0 2.09 2.2 3.44 3.44 0 0 0 2.58-1.42zm44 5.43H65.2a.34.34 0 0 1-.37-.37V5.69c0-.33-.12-.54-.5-.54h-4.92a1.11 1.11 0 0 0 0 1.56h1.37c.1 0 .18.07.18.21v10.24a.41.41 0 0 1-.37.4H59a.8.8 0 0 0-.29.67A1 1 0 0 0 59 19h7.8a1.17 1.17 0 0 0 .26-.73.89.89 0 0 0-.26-.71zM6.36 7C3.67 6 3.11 5.24 3.11 4.15s1.1-2.37 3.44-2.37A4.72 4.72 0 0 1 9 2.55a4.87 4.87 0 0 1 1.59 1.82.38.38 0 0 0 .28.18h.85c.13 0 .17-.09.17-.23V1.13a.38.38 0 0 0-.29-.36A15.86 15.86 0 0 0 6.41 0C2.56 0 0 2.18 0 5.52s2.49 4.66 5.75 5.66c2.05.63 4.49 1.48 4.49 3.51 0 1.2-1.1 2.59-3.32 2.59A4.66 4.66 0 0 1 3.45 16a8.8 8.8 0 0 1-1.86-2.55c-.06-.16-.17-.3-.31-.3h-1c-.14 0-.24.1-.24.3v3.73a.56.56 0 0 0 .23.45 13.64 13.64 0 0 0 6.5 1.5 6.19 6.19 0 0 0 6.54-6.39C13.31 8.54 9.44 8 6.36 7zm68.25 3.29c-2.82-.68-3.4-1.18-3.4-2.17s.73-1.74 2.2-1.74a4.24 4.24 0 0 1 3.46 1.82.4.4 0 0 0 .38.2h.69a.19.19 0 0 0 .19-.18V5.77a.37.37 0 0 0-.26-.39 17 17 0 0 0-4.48-.53c-2.38 0-5 1.37-5 4.29a4.66 4.66 0 0 0 3.77 4.35c3 .8 3.82 1.22 3.82 2.49 0 1.1-.86 1.76-2.35 1.76s-2.9-1.1-3.73-3.07c-.13-.2-.21-.27-.35-.27h-.95a.23.23 0 0 0-.25.26v2.88c0 .18.3.46.3.46a10.52 10.52 0 0 0 1.82.86 9.33 9.33 0 0 0 3.15.49c3.5 0 5.17-2.17 5.17-4.7.06-2.29-1.24-3.71-4.17-4.41zm-13.37-7h3.51a.36.36 0 0 0 .4-.24L66 .45c.06-.21-.08-.32-.27-.32H62a.33.33 0 0 0-.33.27L61 2.73c-.1.27 0 .49.25.49zm34.94 14.28a2.06 2.06 0 0 1-1.84-.8L89.7 9.68a7.2 7.2 0 0 1 2.65-2.6 6.83 6.83 0 0 1 2.74-.59.83.83 0 0 0 .22-.66.89.89 0 0 0-.22-.68h-4.38a.72.72 0 0 0-.53.34l-4.46 6.41V.64a.46.46 0 0 0-.43-.49h-5.55a.86.86 0 0 0-.27.67 1.06 1.06 0 0 0 .27.73h1.78c.22 0 .31.1.31.33v15.35c0 .22-.11.32-.26.32h-1.69a1 1 0 0 0-.27.68 1.1 1.1 0 0 0 .27.72h7.33a1.44 1.44 0 0 0 .21-.72 1.16 1.16 0 0 0-.21-.67H86a.3.3 0 0 1-.29-.31v-3.57l1-1.09a.35.35 0 0 1 .58.05c.14.23 2.94 4.51 3 4.62s.05.31-.11.31h-.87a1.42 1.42 0 0 0-.21.68 1.55 1.55 0 0 0 .19.68h7.32a1.23 1.23 0 0 0 .23-.68 1.26 1.26 0 0 0-.27-.71zM99 6.86h-.45a1.42 1.42 0 0 1 0-.25.87.87 0 0 0 0-.22.21.21 0 0 0-.13-.13H98v.64h-.46V5.14h.86a.84.84 0 0 1 .35.09.44.44 0 0 1 .24.42.39.39 0 0 1-.13.32.57.57 0 0 1-.31.12.6.6 0 0 1 .26.1.46.46 0 0 1 .16.39v.21zm-.46-1.17a.2.2 0 0 0-.14-.2.89.89 0 0 0-.27 0H98V6h.18a.42.42 0 0 0 .26-.07.23.23 0 0 0 .07-.24zm1.28.31a1.54 1.54 0 0 1-.48 1.15A1.59 1.59 0 0 1 96.62 6a1.52 1.52 0 0 1 .5-1.16A1.6 1.6 0 0 1 99.82 6zm-.29 0a1.28 1.28 0 0 0-.38-.92 1.3 1.3 0 0 0-1.84 0 1.32 1.32 0 0 0 0 1.86 1.3 1.3 0 0 0 1.84 0 1.29 1.29 0 0 0 .38-.94z" fill="#999" data-name="Layer 1-2"/></g></g></g></svg>