<svg xmlns="http://www.w3.org/2000/svg" viewBox="0 0 175.75 107.06"><g data-name="Layer 2"><path d="M81 0v8.48H66.5v4.94H81v8.48H66.5v4.94H81v8.42H54.23V0zM31.15 35.25V8.48l10.35 1.2.04-9.68H8.37l-.05 9.67 10.56-1.3v26.88zM162.23 0h-26.78v35.25h26.78v-8.42h-14.51v-4.94h14.51v-8.47h-14.51V8.48h14.51V0zm-55.12 0H94.84v35.25h26.78v-8.42h-14.51V0zm68.64 46.74v60.32H0V46.74zM46 83.09l-11-3a7.38 7.38 0 0 1-6.76 4.26h-.74a6.7 6.7 0 0 1-4.35-2.25 7.72 7.72 0 0 1-2-5.36 7.65 7.65 0 0 1 .13-1.4 7 7 0 0 1 1.9-3.64 6.81 6.81 0 0 1 3.6-2 7.44 7.44 0 0 1 1.39-.13A7 7 0 0 1 35 73.78l10.76-4C42.64 62.55 36.71 58.91 28 58.91q-8.5 0-13.88 5.3-.64.63-1.21 1.31A17.28 17.28 0 0 0 8.94 77a17.62 17.62 0 0 0 5.36 13.42 18 18 0 0 0 12.95 5A21.57 21.57 0 0 0 39.41 92 15 15 0 0 0 46 83.09zm24.92-23.55H58.65v35.25h12.27zm50.07 0h-12.21v13.83L84.7 58.91v35.88H97V80.91l24 14.51V59.54zm40.56 0h-26.78v35.25h26.78v-8.42H147v-4.94h14.51V73H147v-5h14.51v-8.46z" fill-rule="evenodd" data-name="Layer 1"/></g></svg>