<svg xmlns="http://www.w3.org/2000/svg" viewBox="0 0 161.61 44.29"><g data-name="Layer 2"><g data-name="Layer 1"><g data-name="Layer 2"><path d="M47.4 19.69c-2.42 3.5-5.79 6.68-8.69 6.68-1.23 0-1.78-.67-1.76-2.09a11.88 11.88 0 0 1 .37-2.65 28.34 28.34 0 0 0 8-5.51 7.33 7.33 0 0 0 2.36-4.53c0-1.45-.89-2.2-2.7-2.22-2.63 0-5.78 1.76-7.83 3.95-2.69 2.93-4.76 7.08-4.81 10.77 0 2.61 1.21 4.69 4.57 4.56 3.6-.09 7.14-2.87 9-4.88a10.14 10.14 0 0 0-.36 2.33A4.53 4.53 0 0 0 49 30.77l.46-.21a5.19 5.19 0 0 1-.21-2c.16-2.26 1-4.81 2.37-8.16 2.51-6.33 6.17-13.57 7.78-17.84l-3.83.73a1.72 1.72 0 0 0-1.17 1c-1.85 3.94-3.75 8.13-6.12 13.59zm-3.6-8.43c.6 0 .8.41.8.93 0 2.47-3 5.62-6.93 7.93 1-3.83 3.74-8.9 6.14-8.87zM109.37 26c0 1.75 1.11 2.83 3.23 2.77a10.17 10.17 0 0 0 6.28-3.13c.36 1.89 1.71 3.25 4.48 3.15s5.65-1.91 7.57-4v.6c0 1.94 1 3.39 3.22 3.39 2.38 0 5.13-1.8 7.3-4.88h.07a14.84 14.84 0 0 0-.47 2.8 3.81 3.81 0 0 0 3.27 4.06l.47-.19c-.7-1.69.28-5.89.68-7.29a103.87 103.87 0 0 1 5-12.6 6.54 6.54 0 0 0-3.5-.93c-5-.19-10 1.86-13.59 8.31a27.65 27.65 0 0 0-1.81 3.78 16 16 0 0 1-1.29 1.53c-1.31 1.27-3.19 2.9-5.09 2.92-1.08 0-1.68-.74-1.65-2.09 0-5.16 4.57-13 7.66-13 .85 0 1.21.37 1.21 1.1a4.29 4.29 0 0 1-1.41 2.8l.36.33c2.07-.8 4-2.24 4-3.78 0-1.75-2-2.07-3.81-2.06a11.21 11.21 0 0 0-7.82 3.85 18.92 18.92 0 0 0-4.89 10.08c-1.38 1.61-2.92 2.7-3.95 2.72a.87.87 0 0 1-1-.9 11.34 11.34 0 0 1 .84-3c1.32-3.34 3.27-7.51 5.63-12.44 0 0-3.61.61-4.13.76a1.79 1.79 0 0 0-1.21 1c-1.55 3.27-3.38 7.06-4.52 9.88a14.1 14.1 0 0 0-1.13 4.46zm33.8-14.1a4.51 4.51 0 0 1 2.93-.41c-.31.64-1.7 3.44-2.78 6-1.71 4-4.28 7.94-6.66 8.5-.82.24-1.3-.12-1.29-.93.07-3.58 3.93-11.38 7.81-13.2zm-84.56 1.42c-2.69 2.93-4.77 7.08-4.82 10.77 0 2.56 1.32 4.69 4.77 4.56 3.7-.09 7.06-2.24 10-5.29-.73 2-1.36 3.64-1.74 4.56-1.08 2.7-1.87 4.88-3.53 6.14l.18.33c4.87.29 6.69-3.14 8.7-8.72s3.7-10.45 5-13.82a39.27 39.27 0 0 0 6.84-.3c-4.42 2-8.16 9-7.72 13.64.2 2.06 1.42 3.47 4 3.47 5.07 0 9.33-6 11-9.94a18.69 18.69 0 0 0 1.65-6.15c1.21-.21 2.36-.42 2.94-.5 1.1-.15.89 1.07.54 2-2.07 5.78-5.66 14.18-5.67 14.31h4c1.71-3.57 2.77-5.85 4.14-8.27 1.65-2.85 5.33-7.56 6.79-7.57.52 0 .65.33.53.83-.26 1.94-5 9.35-4.92 13a4.24 4.24 0 0 0 3.51 4.39l.46-.26a4.19 4.19 0 0 1-.32-1.93c0-2.44 1.95-6.72 2.71-8.38 1.22-2.6 3.4-6.41 3.26-8.5-.07-1-.83-1.93-2.59-1.94-3.22 0-6.43 3.12-9.13 7.32h-.07c1.08-2.45 1.92-4.71 1.89-5.82s-.6-1.41-1.81-1.41a15.71 15.71 0 0 0-3.14.65c-1.6.41-3.27.85-5.12 1.23-1.13.15-1.52.36-1.49.77.23 6.42-4.14 14-7 14-1.25 0-1.53-.91-1.53-2.18 0-4.44 3.64-11.89 7.2-13.07l.82-.22.45-1.2a28.3 28.3 0 0 1-3.5.21H78c2.07-4.93 5-8.12 9.22-8.31 2.64-.09 4.41.91 4.57 2.42a4 4 0 0 1-1.28 3.4l.29.29c2.33-1.1 3.93-3 3.94-4.24 0-2-2.35-3.2-6.15-3.15-4.83 0-10.78 1.12-14.94 9.74a5.47 5.47 0 0 0-3.31 1.67l.17.38a7.33 7.33 0 0 1 2.38-.28c-.58 1.41-1.73 4.48-2.89 7.63-3.5 4.63-7 6.83-9.59 6.83-1.41 0-2-.73-2-2.09a11.06 11.06 0 0 1 .37-2.65 28.45 28.45 0 0 0 8-5.51c1.37-1.49 2.32-3 2.36-4.53s-.87-2.2-2.71-2.22c-2.61-.07-5.76 1.72-7.82 3.91zm6.62-2.06c.6 0 .84.41.84.93 0 2.47-3 5.62-7 7.93 1-3.83 3.77-8.9 6.16-8.87zm53.64-6.58a2.77 2.77 0 0 1 2.45-2.25 1.63 1.63 0 0 1 1.56 2.18 2.78 2.78 0 0 1-2.44 2.25 1.65 1.65 0 0 1-1.56-2.19zm42.73 38.51c0 .58-40.72 1.1-80.8 1.1S0 43.77 0 43.18s40.73-1.08 80.8-1.08 80.81.49 80.81 1.08zM12.5 8.49C13.46 3.78 19.37.62 29 .62h17.1c1.74 0 3.8-.11 4.74-.62l.27.34c-1.19 1.47-2.8 2.41-6.59 2.51H37.6c-2.53 1.74-3.92 5.27-7.1 13.66-1 2.61-3 8.47-4.49 12.15-1.59 3.9-4 6-8.18 5.75l-.24-.41c1.47-.83 2.65-3.1 4.5-8.09 1.49-4.19 5.14-13.52 5.9-15.26a15.7 15.7 0 0 1 6.87-7.78h-4.75C21.5 2.87 16 5.83 15.85 11a4.73 4.73 0 0 0 .47 2.27l-.26.22a4.07 4.07 0 0 1-3.56-5z" fill="#999" data-name="Capa 1"/></g></g></g></svg>