<svg xmlns="http://www.w3.org/2000/svg" viewBox="0 0 185.21 123.28"><g data-name="Layer 2"><path d="M112.83 79.28a20.18 20.18 0 0 0-14.22 5.19v38.82H107v-13.46c1.8 1.66 4.26 3.4 6.8 3.4 8.47-.07 13.78-7.64 13.78-17s-6.52-16.95-14.75-16.95zm.73 25.66c-2.57.6-4.62-.76-6.58-1.93V89.28c1.91-1.61 3.84-2.34 5.73-1.91 3.7.83 5.37 4.26 5.47 9s-1.34 7.81-4.62 8.57zm-61.7-74zm-6 48.36c-8.23 0-14.74 7.59-14.74 17s6.36 17 14.76 17 14.74-7.59 14.74-17-6.49-17.02-14.72-17.02zm0 26c-3.52 0-6.18-4-6.18-9s2.73-9 6.18-9 6.18 4 6.18 9-2.62 8.98-6.14 8.98zm33.72-26a20.18 20.18 0 0 0-14.22 5.18v38.82h8.4v-13.47c1.8 1.66 4.26 3.4 6.8 3.4 8.47-.07 13.78-7.64 13.78-17s-6.49-16.95-14.72-16.95zm.73 25.66c-2.57.6-4.62-.76-6.58-1.93V89.28c1.91-1.61 3.84-2.34 5.73-1.91 3.7.83 5.37 4.26 5.47 9s-1.3 7.81-4.58 8.57zm65.9-25.73v.07c-8.24 0-14.72 7.47-14.72 16.83s6.34 17 14.74 17c5.24 0 10.12-1.82 12.71-5.91l-6.29-4.93h-.06a8.65 8.65 0 0 1-6.36 2.89c-2.75 0-5-2.46-5.82-5.9h20.3c.04-9.43-4.06-20.07-14.46-20.07zm-5.76 13.64c.9-3.31 3.11-5.64 5.74-5.64 2.63 0 4.84 2.34 5.74 5.64zm44.72-12.76l-2.53 7.27a20 20 0 0 0-9.22 1.36v23.54h-8.39V83.72a29.18 29.18 0 0 1 20.18-3.63zM34.9 78.74H22.43v33.59h-10V78.74H0v-8.35h34.9zm123-32.85c-9.58 4-18.08 8.84-27.31 13.26-2.82 1.35-7.69 5.08-8.28 4.25-.76-1.06 2-3.79 3-6.08a8.1 8.1 0 0 0-1.57-9.3c-4-3.83-16.69-7-27.07-9.49-12.53-3-26.89-5.11-42.45-7.06-.77-.1-2.35 0-2.35-.54s2.29-.23 3.36-.19c29.87 1.21 60.14 3.53 89.57 3.23 15.12-.15 35.22-4.84 35.34-7.76.11-2.67-19.87-6.49-33.3-6.34-22 .25-44 1.31-66.07 1.64-.73 0-2 .26-2.14-.31 0-.29 1.52-.49 2.3-.57 16.89-1.84 31.36-4 41.7-6.5 7.79-1.87 13.07-3.81 15.6-7.13 1.4-1.85.64-6.59 1-6.83.92-.64 1.54.66 4.52 2.13 5.32 2.63 13.66 6.82 18.91 8.4 12.36 3.72 22.17 7.8 22.24 16 .1 10.74-17.3 15.1-27.01 19.19z" fill="#999" data-name="Layer 1"/></g></svg>