<svg xmlns="http://www.w3.org/2000/svg" viewBox="0 0 366 73.22"><g data-name="Layer 2"><g data-name="Layer 1"><g data-name="Layer 2"><path d="M350.7 13.87H366v57.9h-15.3zM52.92 43.4a34.43 34.43 0 0 0 0-14.4 33 33 0 0 0-5.08-11.88 3.75 3.75 0 0 0-6.21 4.22 26.44 26.44 0 0 1 3.93 9.23 27 27 0 0 1 0 11.26A26.17 26.17 0 0 1 41.64 51a3.76 3.76 0 0 0 6.16 4.32l.05-.08a33.17 33.17 0 0 0 5.07-11.84M32.54 28.55a4.93 4.93 0 0 0 0-7 5.07 5.07 0 0 0-7 0 4.95 4.95 0 1 0 7 7m.11 15.54a3.83 3.83 0 0 0-6.88-3.36l-5.09 10.51a3.81 3.81 0 0 0 1.75 5.1 4.23 4.23 0 0 0 1.67.38 3.8 3.8 0 0 0 3.43-2.15l5.11-10.48M57.43 0a15.78 15.78 0 0 1 15.78 15.78v41.65a15.78 15.78 0 0 1-15.78 15.78H15.78A15.78 15.78 0 0 1 0 57.43V15.78A15.78 15.78 0 0 1 15.78 0h41.65M102 53.39V27h15.52V13.87H102V0L86.48 1.54v51.63c0 20.25 19.81 22.12 33.91 18.6l-3.3-11.56c-7.15 1.43-15.08.88-15.08-6.83m61.34 2.42c-19.81 6.06-22 1.21-22-10.13v-31.8h-15.44V49c0 16 7.38 24.22 20.14 24.22 2.64 0 8.15-1.21 21.25-5.72l2 4.29h9.47V13.87h-15.43zm163-2.42V27h15.52V13.87h-15.5V0l-15.52 1.54v51.63c0 20.25 19.82 22.12 33.91 18.6l-3.3-11.56c-7.15 1.43-15.08.88-15.08-6.83m-44-41c-2.64 0-8.25 1.21-21.46 5.72l-2-4.29h-9.47v57.9h15.41V29.83c20-6.16 22.35-1.21 22.35 10.13v31.82h15.41V36.66c0-16-7.38-24.22-20.26-24.22M214.08 26.2c-7.6.44-13.43 6.61-14 15.08l27.3-6.82c-2.31-5.72-6.93-8.59-13.32-8.26m2.2 33.91a47.73 47.73 0 0 0 17.28-2.42l3.63 11.67a54.7 54.7 0 0 1-20.48 3.85c-19.26 0-30.93-12.55-30.93-29.94 0-18.27 13.21-30.71 29-30.71 18.94 0 27.41 14 27.85 30.93l-39.74 9.8c2.75 5.06 7.82 6.5 13.43 6.83" fill="#999" data-name="Layer 1-2"/></g></g></g></svg>