<svg xmlns="http://www.w3.org/2000/svg" viewBox="0 0 164.25 54.53"><g data-name="Layer 2"><g data-name="Layer 1"><g data-name="Layer 2"><path d="M27.24.13l-.08.21H27l.09.21-.17.24v.29l-.33.42v.42l-.21.88-.13 1.12-.08.88-.25.28-.22 1.08-.29 1-.46.67L24.82 9l-.5 1.87-.12.54-.08.5-.17.58-.17.58-.29.5-.08.42-.17.46-.08.42-.16 1-.43 1.13v.21l-.25 1.12-.08.54-.46.63-.33.75-.17.71-.46 1.17-.21.83-.42 1.29-.33 1-.67 1.21-.12.71-.21.46-.25.13V28l-.17.21-.21.58-.38.42.13.21-.21.41-.21-.08-.12.08V30l-.62.21h-.38l-.17-.13-.58-.21-.33-.5-.21-.54-.15-.58-.21-.42-.79-2.37-.46-2.17-.54-2.17-.08-1.28-.21-1.21-.33-4.54v-2.3L12.28 8l-.21-.71-.45.71h-.21l-.21.62-.33.38-.21.38-.42 1.17-.21.54-.12.54-.13.54-.21.5-.21 1V14l-.63 1.46v1l-.21.12v1l-.2.42-.13 1.17-.12 2-.21 1V23l.12.21-.21.42.23.67v1.12l.17.5-.08 1-.21.54v.25l.13.21v.54l-.12.25-.1.29h-.51l-.54.33-.42.5-.83.17-.25-.16-.5-.25-.92-.59-.17-.83-1.13-2.5L1.33 22l-.5-1.75-.13-.88v-.75l-.29-.84v-1.41l-.25-.83-.08-1v-.92l-.08-1v-.42l.13-.87V8l.08-.33v-.38l.13-.46.08-.75L.62 5l.33-.46.42-.08h.34l.5.08.21.13v.13l.21.08.32.12.05.5.33 1.75.21.88.12.46v.54l.33 1 .21 1 .33 1.41.63 2.67.5 3.54.21-2 .42-1.46.62-1.42.37-1 .33-.67.13-.62.33-.92.37-.66.42-.75.54-1.17.25-.54.62-.75v-.08l.46-.54.22-.42.75-.21h1.74l.67.21.29.66.25.5.17.38.25.83.08.67.21 2.79v2l.3 1.38.08 1.42.12 2.71v1.21l.08.21-.16.29.21.33.09 1V24l.25.17v1l.13.83.33-.67.29-1 .87-2.46.38-1.29.12-.58.79-2.71.42-1.16.33-.58.13-.13.21-1.12.5-1.09v-.58l.25-.58.38-1 .13-.54.21-.13L22.95 8l.42-.87.21-.54.54-1.09-.17-.71.63-1.08.58-1.12h.17l.16-.59.25-.42V1.5l.21-.29.75-1.08.25.08v.12l.17-.33zm7.62 17.2l-1.33.46-1.83 1.13-2.33 1.71-1.5 1.46-1.12 1.29-.75 1.54v.54l.46.29 2-1.67 2.4-2.08 2.79-2.75 1.5-1.87h-.29zm-.3-2.33h.54l.63.75.08.29-.38.92.92-.79H37l.79.21.21.21.25.42.12.21v1l-.21.54.13.67-1 2.46-.79 2v.2L36 25l-.33 1.54-.08.58-.21.08v.67l-.21.46v.42l-.13.54-.08.37.21.21.08 1 .29.42.13.33.37.33.5.17h.33v.17l-.54.13-.21.21h-.21l-.5.34v.2h-.21l-.64-.17-.46-.21-1-1-.29-.71-.33-.75V30l-.21-.87-.21-1.75.17-1.92.21-1.46h-.12v.13l-1 1.12-1 .92-.42.67-.42.42-.13.13-.33.33-.75.58-1.27.83-1.42.5h-.61l-1.29-.42-1-.5-.38-.58-.3-.63-.08-.92.17-1.08.29-1.33.83-1.54.21-.17.75-1 2-1.75 3-2.13 2.5-1.5 1.59-.75zM50.11 3.58h-.5l-.25.12-.36.46-1.08 1.3-1.85 2.83-.75 1.42-.25.38-1.75 3.37-.67 1.88-.12.29-1 2.75-.53 2.8.13.2-.13.21-.1 1.41v1.13l.25 2 .37 1.21v.42l.88 1.54.29.37.58.63.54.46 1.21.46h.75l.66-.42v-.3l.54-.25-.24-.25-.21-.12-.57.12-1-.17-.68-.83v-.25l-.38-.33.06-.42-.25-.63-.33-1.21-.08-.88-.08-.28v-.87l.17-.21v-.41l-.08-.17.13-.21v-.5l.09-.25.21-1.21.13-.75.13-.38.13-.17v-.54l.33-.46.12-.54v-.12l.46-1V17l.33-.25v-.54l.33-.67.25-.5.5-.92.37-.83.79-1.46.21-.46.21-.29.33-.8.29-.33.92-1.75.12-.54.54-1.12.54-1.54v-.54l-.12-.25-.46-.63zm7.58 0h-.5l-.24.09-.33.46-1.1 1.33-1.87 2.83-.75 1.42-.25.38-1.75 3.37-.67 1.88-.13.29-1 2.75-.54 2.8.13.2-.13.21-.08 1.41v1.13l.25 2 .37 1.21v.42l.9 1.54.29.37.58.63.54.46 1.21.46h.75l.63-.42v-.3l.54-.25-.22-.25-.21-.12h-.54l-1-.17-.71-.71v-.25l-.37-.33.08-.33-.25-.63-.37-1.25-.08-.88-.09-.25v-.87l.17-.21v-.41l-.08-.17.13-.21v-.5l.08-.25.21-1.21.13-.75.12-.38.13-.17v-.54l.28-.41.13-.54v-.12l.46-1v-.21l.33-.25v-.54l.33-.67.25-.5.5-.92.38-.83.79-1.42.21-.46.21-.29.33-.8.28-.41.92-1.75.13-.54.54-1.12.54-1.54v-.63l-.12-.25-.46-.63zm26.59 3.21l.37-.5.21-.54-.12-.5-.12-.41-.25-.67-.25-.79-1.17-.71-.82-.12h-.54l-.41.17h-.29l-.41.38-.41.16-.33.34-.25.08-.41.5-1.42.82-1.32.87-.39.42-.37.12-1.31.83-1 .75-.82.54-1.82 1.26-.7.58-.74.71-.95.63-.62.58-1.07 1.08-.37.58-.41.46-.41.83v.46l-.25.42-.29.37v1.71l.17.62.16.58.49.71.82.83.58.41.7.71.62.33.7.21.17.17.95.16 1.19.42 1 .25.21.16.7.25h.25l.29.29.41.12.82.5.41.21.58.29.91.58.62.21.66.5.41.37.37.25.17.25.21.17.16.25.16.25v.37l.12.25v.38l-.08.38-.37.29-.33.21h-.37l-.41.42-.37.08h-1l-.45.08-.16.12h-1L75 31h-.21l-.95.08-.25.12h-2l-1.28.13-.12.08-.78.21-.7.08-.5.08h-.57l-.82.13-.42.09v.08h.12l.16.08h.13l.2.21.25-.09v.09l.25-.09h.29l.12-.12.29.21.17.29h.16l.21.13v-.34h.12l.16.17h.46l.25.13h.45l1.11.25h.41l.74.08h.82l1.6.12h1.23l1.15-.16.82-.21.49-.12.45-.21 1-.46 1-.88.37-.79v-.79l.08-.58-.12-.75-.21-.75-.49-.79-.45-.62-.53-.5-.45-.42L79 25l-1-1.09-1-.63-.66-.54-1-.54-.17-.2-.82-.54-.42-.13-.51-.33-.58-.42-1-.58-.29-.2-1.36-1-.19-.46-.08-.84.25-1 .49-1 .62-.58.49-.17.37-.5.58-.46.2-.25.7-.5.82-.71.7-.5.12-.21.58-.29.29-.29.29-.12.37-.21.45-.12.5-.21.33-.29.66-.17.54-.37.78-.5.87-.3.95-.54.62-.42.58-.33.66-.33.58-.34zm10.61 1l-.29.08H94l-.51.13-.66.71-1.19 2L90 13.92l-.2.08-1.11.21-2.14.46-1.77.79-.78.29-.41.54v.25l-.16.46.16.21.21.54.17.12.37.33.94.5h2l.78-.12-.49 1.67-1 3.79-.16 1.88.24 1.88.41 1.12.78 1 1.19.67 1.4.42.53-.42.58-.21.82-.58.55-.8.45-.42.21-.54.12-.34.08-.46L94 27v-.12h-.21l-.2.12-.78.42h-.66l-.74-.38-.06-.04v-1.08l-.08-.12.12-.21.08-.63.2-.79.33-1 .08-.5.33-1.21.25-.46.08-.25v-.42l.26-.63.21-.37v-.63l.62-.92.86-.33.58-.33 1.65-.62 1.84-.5.74-.2h.78l.21-.08v-.21h1.15l.21-.21h.37l.66-.33.95-.29h.08l-.16-.12-.78-.33-2.14-.29-2.06-.13-1.64-.21-1-.09-.45-.12v-.33l.56-2.06v-.75l-.29-1-.45-.75-.37-.5zM105.46 15h-.62l-.41.21-.7.87-.95 2.13-1.32 4.5-.95 4v.91l-.2.5-.13.37.13.42.12.13v.21l.12.46.58 1 .08.25.33.17.41-.08.37-.33.66-.21.16-.25.33-1.5v-.58l.29-1.83.78-3 .66-1.35 1-1.37.8-.63 1-.5.95-.17h.45l1.53.34.49.21.16.33.49.09.54-.54v-.13l.45-.46-.08-.5-.45-.87-.54-.46-1.4-.75-.78-.13-1.64-.08-1.19.37-.86.46v-1.34l-.7-.75zm18.1 2.3l-.93.18-1.31.57-1.61.84L118 20.3l-.81.84-1.14 1.5h.85l1.48-.53 1.4-.8 1.1-.75.89-.84.81-.84 1.1-1.5zm.64-2.61l1.27.13.34.35.13.49-.13.18.21.62-.09.88-.25.58-.09.26v.22l-.55.75-.09.31-.25.35-.47.44-.3.22-.68.7-.81.84-.76.62-.09.22-.38.22H121l-.39.35-.42.22-1.15.84-.55.22-.13.22-1.78.71-.85.09-.17.62v.22l.21.35 1 .57 1.49.44 1.65.18.13.18 2.71.13 1.18-.13 1.82-.31 1-.22h.25V28l-1 .62-1 .49v.18l-.42.13-.1.09-.13.18-.89.35H123l-.13.22-.29.09.11-.09-.09.09h-.38l-.21.22-.89.14h-.55l-.81.18-.47-.09-.09.09h-.76l-.21.13L118 31h-1.11l-.13-.18h-.25l-.51-.13h-.13v-.09l-.08-.09h-.9l-.25-.17-.64-.44-.59-.66-.55-.75-.55-1.28-.08-.53.08-.18-.21-.79v-.13l-.09-.22.09-.31v-.57l.08-.62.8-1.2.94-1.28.72-.66.59-.71.47-.35 2.54-2 1.86-1.19 2.72-1.19 1.31-.44zm15.35 2.61l-.93.18-1.32.57-1.61.84-1.69 1.45-.81.84-1.19 1.5h.85l1.48-.53 1.4-.8 1.1-.75.89-.84.81-.84 1.1-1.5zm.64-2.61l1.27.13.34.35.13.49-.13.18.21.62-.09.88-.25.58-.09.26v.22l-.55.75-.08.31-.26.35-.47.44-.3.22-.68.7-.81.84-.76.62-.08.22-.38.22H137l-.38.35-.42.22-1.15.84-.55.22-.13.22-1.78.71-.85.09-.17.62v.22l.21.35 1 .57 1.49.44 1.65.18.13.18 2.71.13 1.18-.13 1.86-.28 1-.22h.13V28l-1 .62-1 .49v.18l-.42.13-.1.09-.13.18-.89.35H139l-.13.22-.3.09.11-.09-.08.09h-.38l-.21.22-.89.14h-.55l-.81.18-.47-.09-.09.09h-.76l-.21.13L134 31h-1.1l-.12-.18h-.26l-.51-.13h-.13v-.09l-.08-.09h-.9l-.25-.17-.65-.44-.59-.66-.55-.75-.55-1.28-.08-.53.08-.18-.21-.79v-.13l-.09-.22.09-.31v-.57l.08-.62.8-1.2.93-1.28.72-.66.59-.71.47-.35 2.54-2 1.86-1.19 2.72-1.19 1.31-.44zm15.09-7.17l-.29.09h-.57l-.53.08-.66.71-1.19 2-1.6 3.21-.2.08-1.11.21-2.13.5-1.77.79-.78.29-.45.52v.25l-.16.46.16.21.21.54.16.13.37.33.95.5h2l.78-.12L148 20l-1 3.79-.16 1.87.24 1.88.41 1.12.78 1 1.19.67 1.4.42.53-.42.58-.21.82-.58.57-.75.46-.42.2-.54.12-.33.08-.46.2-.21v-.12h-.2l-.21.12-.78.42h-.66l-.74-.38-.08-.13v-1.08l-.08-.12.13-.21.08-.62.2-.79.33-1 .08-.5.33-1.21.25-.46.08-.25v-.41l.29-.63.21-.38v-.62l.62-.92.86-.33.58-.33 1.64-.63 1.81-.54.74-.21h.78l.2-.08v-.21H162l.21-.21h.37l.66-.33.95-.29h.08l-.17-.13-.78-.33-2.14-.29-2.06-.13-1.64-.21-1-.08-.45-.12v-.33l.54-2.08v-.75l-.19-.93-.38-.77-.41-.42-.25-.21zM24.54 49.79v-6.16c0-.5.16-.81.58-.89a2.28 2.28 0 0 1 .39 0c.06 0 .12 0 .12-.09s-.08-.12-.25-.12h-3.11c-.17 0-.25 0-.25.12s.06.09.13.09a2 2 0 0 1 .49.06c.34.08.5.34.53.87s0 .94 0 3.37v2.75c0 1.5 0 2.73-.08 3.39-.06.45-.14.79-.45.86a2.51 2.51 0 0 1-.47.06c-.09 0-.13 0-.13.09s.08.12.25.12h3.45c.17 0 .25 0 .25-.12s0-.09-.13-.09a3.14 3.14 0 0 1-.7-.06c-.47-.07-.56-.41-.61-.86-.08-.66-.08-1.89-.08-3.39zM131 47v2.75c0 1.5 0 2.73-.08 3.39-.06.45-.14.79-.45.86a2.43 2.43 0 0 1-.47.06c-.09 0-.12 0-.12.09s.08.12.25.12h1.53c.45 0 1.5.09 3.86.09.61 0 .74 0 .84-.4a12 12 0 0 0 .2-1.52c0-.13 0-.24-.09-.24s-.11.06-.14.24c-.11.64-.3 1-.7 1.12a4.49 4.49 0 0 1-1.5.17c-1.53 0-1.77-.2-1.81-1.28v-4a.1.1 0 0 1 .09-.11 22.31 22.31 0 0 1 2.23.08c.61.06.75.33.81.55a1.59 1.59 0 0 1 .06.52c0 .07 0 .14.11.14s.11-.17.11-.3a6.69 6.69 0 0 1 .06-1 3.93 3.93 0 0 1 .12-.87c0-.09 0-.13-.08-.13s-.13.08-.24.2a1.18 1.18 0 0 1-.73.22h-2.48c-.2 0-.09 0-.09-.16v-4.31c0-.11 0-.16.09-.16h2.14c.84.1 1 .28 1.11.53a1.67 1.67 0 0 1 .09.56c0 .13 0 .2.13.2s.09-.09.11-.17.06-.88.08-1a3 3 0 0 1 .13-.74c0-.11 0-.14-.06-.14s-.14.06-.22.08a4.22 4.22 0 0 1-.67.08h-5.35c-.17 0-.25 0-.25.12s.06.09.12.09a2.93 2.93 0 0 1 .53 0c.51.11.64.36.67.89s0 .94 0 3.37zm-10.59 2.75v-6.57h2c1.5 0 1.86.39 1.92.86v.17c0 .22 0 .27.12.27s.11-.06.11-.2v-1.72c0-.09 0-.19-.08-.19a7.49 7.49 0 0 1-1.55.16H117a8 8 0 0 1-1.24-.08 3 3 0 0 1-.69-.19c-.06 0-.12.2-.16.3s-.34 1.47-.34 1.62 0 .14.08.14.11 0 .15-.16a3.07 3.07 0 0 1 .27-.48c.25-.38.63-.48 1.59-.5H119v6.61c0 1.5 0 2.73-.08 3.39-.06.45-.14.79-.45.86a2.51 2.51 0 0 1-.47.06c-.1 0-.12 0-.12.09s.08.12.25.12h3.45c.17 0 .25 0 .25-.12s0-.09-.12-.09a6.93 6.93 0 0 1-.71-.1c-.47-.07-.56-.41-.61-.86-.08-.66-.08-1.89-.08-3.39zM100.08 47v2.28c0 2.28.59 3.37 1.36 4.1a4.79 4.79 0 0 0 3.22 1.11 4.57 4.57 0 0 0 3.22-1.16c1.25-1.11 1.44-3 1.44-4.67v-5c0-.5.16-.81.58-.89a1.35 1.35 0 0 1 .39 0c.06 0 .13 0 .13-.09s-.08-.12-.25-.12h-3c-.17 0-.25 0-.25.12s.06.09.13.09a2.91 2.91 0 0 1 .53 0c.52.11.64.36.67.89s0 .94 0 3.37v2a6.07 6.07 0 0 1-.9 3.83 3.29 3.29 0 0 1-2.35 1.08 3.06 3.06 0 0 1-2.36-.86c-.67-.64-1.17-1.61-1.17-3.86v-5.59c0-.5.16-.83.58-.89a2.31 2.31 0 0 1 .39 0c.06 0 .12 0 .12-.09s-.08-.12-.25-.12h-3.39c-.17 0-.25 0-.25.12s.06.09.13.09a2.89 2.89 0 0 1 .53 0c.52.11.64.36.67.89s0 .94 0 3.37zm-9.68 2.75v-6.57h2c1.5 0 1.86.39 1.92.86v.17c0 .22 0 .27.12.27s.11-.06.11-.2v-1.72c0-.09 0-.19-.08-.19a7.47 7.47 0 0 1-1.55.16H87.1a7.85 7.85 0 0 1-1.23-.08 2.91 2.91 0 0 1-.69-.19c-.06 0-.13.2-.16.3s-.34 1.47-.34 1.62 0 .14.08.14.11 0 .16-.16a2.83 2.83 0 0 1 .27-.48c.25-.38.63-.48 1.59-.5h2.31v6.61c0 1.5 0 2.73-.08 3.39-.06.45-.14.79-.45.86a2.46 2.46 0 0 1-.47.06c-.09 0-.13 0-.13.09s.08.12.25.12h3.45c.17 0 .25 0 .25-.12s0-.09-.12-.09a3.18 3.18 0 0 1-.7-.06c-.47-.07-.56-.41-.61-.86-.08-.66-.08-1.89-.08-3.39zm-12 0v-6.12c0-.5.16-.81.58-.89a2.32 2.32 0 0 1 .39 0c.06 0 .12 0 .12-.09s-.08-.12-.25-.12h-3.11c-.17 0-.25 0-.25.12s.06.09.12.09a2 2 0 0 1 .48.06c.34.08.5.34.53.87s0 .94 0 3.37v2.75c0 1.5 0 2.73-.08 3.39-.06.45-.14.79-.45.86a2.46 2.46 0 0 1-.47.06c-.1 0-.13 0-.13.09s.08.12.25.12h3.45c.17 0 .25 0 .25-.12s0-.09-.12-.09A7 7 0 0 1 79 54c-.47-.07-.56-.41-.61-.86-.08-.66-.08-1.89-.08-3.39zm-11.9 0v-6.57h2c1.5 0 1.86.39 1.92.86v.17c0 .22 0 .27.13.27s.11-.06.11-.2v-1.72c0-.09 0-.19-.08-.19a7.45 7.45 0 0 1-1.55.16h-5.84a8 8 0 0 1-1.24-.08 2.91 2.91 0 0 1-.68-.19c-.06 0-.13.2-.16.3s-.34 1.47-.34 1.62 0 .14.08.14.11 0 .16-.16a2.52 2.52 0 0 1 .26-.48c.25-.38.62-.48 1.59-.5h2.31v6.61c0 1.5 0 2.73-.07 3.39-.06.45-.14.79-.45.86a2.49 2.49 0 0 1-.47.06c-.09 0-.13 0-.13.09s.08.12.25.12h3.45c.17 0 .25 0 .25-.12s0-.09-.13-.09a3.09 3.09 0 0 1-.7-.06c-.47-.07-.56-.41-.61-.86-.08-.66-.08-1.89-.08-3.39zm-16.37 4.36a4.75 4.75 0 0 0 2.1.42 4.09 4.09 0 0 0 2.36-.66 3.24 3.24 0 0 0 1.36-2.58c0-1.25-.44-2.22-2.28-3.67l-.44-.34c-1.47-1.2-1.91-1.73-1.91-2.62A1.77 1.77 0 0 1 53 42.84h.2a2.16 2.16 0 0 1 2 .83 2.77 2.77 0 0 1 .2.78c0 .12 0 .2.12.2s.11-.11.11-.36c0-1.06.06-1.58.06-1.66s0-.11-.16-.11a2.5 2.5 0 0 1-.55-.08 6 6 0 0 0-1.45-.16c-2 0-3.23 1.14-3.23 2.81 0 1.06.37 2 2 3.39l.7.58c1.34 1.11 1.79 1.73 1.79 2.81a2.08 2.08 0 0 1-2 2.13h-.23a2.12 2.12 0 0 1-2.31-1.6 2.69 2.69 0 0 1 0-.58c0-.12 0-.17-.11-.17s-.11.08-.12.25-.08.87-.08 1.65c0 .42 0 .48.23.59zm-16.48-1.92l-.2-7.48c.5.56 2.26 2.53 4.08 4.48 1.65 1.78 3.9 4.08 4.08 4.23.83.83 1 1 1.14 1s.14-.08.14-1.11v-9.15c0-.94.06-1.28.58-1.39a1.37 1.37 0 0 1 .37 0c.11 0 .17 0 .17-.11s-.11-.11-.28-.11h-3c-.19 0-.31 0-.31.11s0 .11.12.11a4.18 4.18 0 0 1 .77.08c.48.13.59.47.61 1.49l.17 7.93c-.5-.52-2.2-2.42-3.75-4.08-2.4-2.58-4.73-5.09-5-5.36s-.42-.5-.55-.5-.17.17-.17.78v9c0 1.42-.08 1.88-.47 2a2.19 2.19 0 0 1-.64.09c-.08 0-.12 0-.12.09s.09.12.25.12h3.16c.19 0 .28 0 .28-.12s0-.09-.12-.09a3.37 3.37 0 0 1-.76-.15c-.42-.12-.58-.53-.61-1.81z" fill="#999" data-name="Layer 1-2"/></g></g></g></svg>