<svg xmlns="http://www.w3.org/2000/svg" viewBox="0 0 999.07 233.1"><g data-name="Layer 2"><g data-name="Layer 1"><path data-name="Layer 2" d="M184.07.1c-9.3 15.13-18.74 30.18-27.86 45.42-9 15-17.61 30.12-26.38 45.21-7.46 12.83-15 25.61-22.26 38.57a20.07 20.07 0 0 0-2.38 8.81c-.31 9-.21 18-.09 27q.39 28.39 1 56.78a96.76 96.76 0 0 0 1.18 9.72H76.09c0-1.91-.09-4.18 0-6.44.27-5.6.83-11.19.94-16.8.42-20.93.34-41.87 1.21-62.77.35-8.53-2-15.66-6.17-22.76-11.45-19.39-22.48-39-34-58.37C26.27 44.57 14.1 24.89 2 5.13a12.58 12.58 0 0 0-2-2C.34 1.83-1-.51 2.07.1a40.42 40.42 0 0 0 26 0h3l60.12 101.12c1.24-1.81 2.13-3 2.89-4.23 8.08-13.2 16.26-26.35 24.19-39.64 11.36-19 22.54-38.16 33.8-57.25h3c8.67 3.22 17.33 2.61 26 0zm815 11a5.92 5.92 0 0 1-1-1c-4.54-7.39-13.27-8.71-20.71-6.65-6.51 1.8-9.18 6.92-9.36 15.53-.11 5.27-.57 10.54-1 15.8-1.27 14.74-2.63 29.47-3.92 44.21-.73 8.36-1.27 16.74-2.11 25.09-1.19 11.75-2.55 23.47-3.91 35.2-.78 6.67-1.75 13.31-2.57 20-.91 7.43-1.75 14.87-2.53 21.53L963.6 183a40 40 0 0 0 1.43-4.65c2.41-13.16 4.36-26.42 7.21-39.48 6-27.67 12.47-55.26 18.86-82.85 2.48-10.69 5.3-21.3 8-31.94zm-41 222a13.54 13.54 0 0 1 1.87-1.37c6.46-3.25 8.44-8.94 8.06-15.58a13.79 13.79 0 0 0-11.2-12.71c-13.14-2.92-22.75 5.1-19.92 18.8 1.37 6.64 6.43 8.32 11.19 10.85zM930 92.08c-5.85-29.75-21.78-52.62-48.73-66.82-24.67-13-51.26-15.87-78.82-13.31-17.51 1.62-34 5.91-49.49 14.2a92.22 92.22 0 0 0-33.8 31c-10.54 16-14.84 34-15.93 52.82a121.48 121.48 0 0 0 6.26 46.03c10.28 30.51 31.51 50 61.74 59.52 20 6.28 40.76 7.95 61.87 5.77 12.93-1.34 25.47-3.62 37.62-8.19 22-8.27 39-22.43 50-43.28 8.65-16.43 12.13-34.14 12.15-52.78-.95-8.33-1.28-16.77-2.87-24.96zm-184.85-27c10.28-20.85 27.19-33.54 49.64-39 21.21-5.08 42.05-3.47 61.85 5.48a66.77 66.77 0 0 1 30.48 27.84c7.76 13.36 11.6 27.8 13.12 43.2 2 20.31.25 39.93-7 59a70.33 70.33 0 0 1-30.85 36.75c-15.46 9.12-32.38 12.62-50 11.55-20.81-1.26-39.89-7.73-54.48-23.58-11.59-12.59-18.28-27.73-20.8-44.61-1.26-8.45-1.89-17-2.8-25.49.12-17.86 2.9-35.06 10.82-51.13zM691 93.27c-5.1-26.4-19-46.83-43.18-59.12-27.2-13.79-55.87-15.18-85.23-8.28C535.5 32.25 515.31 47.74 503.9 73c-11.66 25.81-12.18 52.89-3.41 79.68 9.28 28.34 29.45 45.62 58 53.56a133.62 133.62 0 0 0 48.76 4c16.56-1.52 32-5.44 46.41-14A75.41 75.41 0 0 0 683.47 164a99.64 99.64 0 0 0 10.38-46.26c-.92-8.17-1.31-16.43-2.85-24.47zm-37.92 70.1c-8.9 18.63-23.34 30.74-43.69 34.63-14.87 2.81-29.87 2.27-44-4.19-18.19-8.34-28.71-23.19-34.31-41.92a115.21 115.21 0 0 1-4.87-38.89c.71-14.19 2.5-28.32 8.78-41.41 10-20.89 26.1-33.4 49.36-36.51 22-2.94 41.46 2.22 57.17 18.18C652.11 64 657.57 77.68 660 92.46c1.33 8.1 1.89 16.32 2.79 24.48-.21 16.21-2.74 31.79-9.73 46.43zM356.56 109.7l2.25-84.35h-29.74V207.6h29.7l-2.17-84.1h101.9l-2.45 84.1h31.39c-.45-6.45-1.12-13-1.32-19.54-.47-15.6-1-31.2-1-46.8.1-29.1.63-58.2.92-87.3.1-9.75 0-19.51 0-28.61H456l2.46 84.36zm-218 97.89h31.58c6.25-15.82 12.51-31.89 19-47.86.76-1.86 3-4.33 4.62-4.43 11.57-.71 23.18-1.12 34.77-1.13 11.26 0 22.53.48 33.78 1.06a5.91 5.91 0 0 1 4.21 3.07c6.17 15.23 12.33 30.47 17.91 45.91 1.43 4 3.53 4.14 6.66 3.79 2.6-.29 5.19-.82 7.79-.88 6.18-.13 12.37 0 18.48 0-29.3-59-53.26-121-78-181.82h-22.71c-24.6 60.96-48.96 122.52-78.09 182.3zM228 59.3l31.47 81.88h-62.78z" fill="#999"/></g></g></svg>