<?xml version="1.0" encoding="UTF-8" standalone="no"?>
<svg width="568px" height="111px" viewBox="0 0 568 111" version="1.1" xmlns="http://www.w3.org/2000/svg" xmlns:xlink="http://www.w3.org/1999/xlink">
    <!-- Generator: Sketch 48.1 (47250) - http://www.bohemiancoding.com/sketch -->
    <title>Fill-1</title>
    <desc>Created with Sketch.</desc>
    <defs></defs>
    <g id="Page-1" stroke="none" stroke-width="1" fill="none" fill-rule="evenodd">
        <g id="logo" fill="#FFFFFF" fill-rule="nonzero">
            <path d="M512.4761,1.0722 L456.9501,110.9472 L487.8821,110.9472 L512.4761,61.9632 L536.8601,110.9472 L567.9321,110.9472 L512.4761,1.0722 Z M338.8321,1.2852 L338.8321,110.9082 L366.5601,110.9082 L366.5601,62.4882 L394.2881,89.1072 L422.0141,62.4882 L422.0141,110.9082 L449.7421,110.9082 L449.7421,1.2852 L394.2881,56.7412 L338.8321,1.2852 Z M178.0111,62.3862 C178.0111,73.8542 168.6831,83.1832 157.2161,83.1832 C145.7481,83.1832 136.4201,73.8542 136.4201,62.3862 L136.4201,27.7252 L108.6931,0.0002 L108.6931,62.6632 L108.6961,62.6632 C108.8461,89.2922 130.5521,110.9082 157.2161,110.9082 C183.8791,110.9082 205.5861,89.2922 205.7351,62.6632 L205.7391,62.6632 L205.7391,27.7282 L178.0111,0.0002 L178.0111,62.3862 Z M300.0911,55.4542 C300.0911,40.1012 287.6421,27.6542 272.2871,27.6542 C256.9321,27.6542 244.4831,40.1012 244.4831,55.4542 C244.4831,70.8102 256.9321,83.2582 272.2871,83.2582 C287.6421,83.2582 300.0911,70.8102 300.0911,55.4542 Z M327.7411,55.4572 C327.7411,86.0832 302.9141,110.9082 272.2871,110.9082 C241.6601,110.9082 216.8301,86.0832 216.8301,55.4572 C216.8301,24.8302 241.6601,0.0002 272.2871,0.0002 C302.9141,0.0002 327.7411,24.8302 327.7411,55.4572 Z M80.7331,67.0322 L100.9181,87.2162 C90.8901,101.5392 74.2691,110.9082 55.4561,110.9082 C24.8301,110.9082 0.0001,86.0832 0.0001,55.4572 C0.0001,24.8302 24.8301,0.0002 55.4561,0.0002 C72.2131,0.0002 87.2351,7.4342 97.4031,19.1812 L77.7471,38.8392 C72.6781,32.0492 64.5801,27.6542 55.4561,27.6542 C40.1011,27.6542 27.6521,40.1012 27.6521,55.4542 C27.6521,70.8102 40.1011,83.2582 55.4561,83.2582 C66.6781,83.2582 76.3421,76.6062 80.7331,67.0322 Z" id="Fill-1"></path>
        </g>
    </g>
</svg>